<?xml version="1.0" encoding="UTF-8"?><svg id="Layer_2" xmlns="http://www.w3.org/2000/svg" viewBox="0 0 474.75 224.59"><defs><style>.cls-1{fill:#22356a;}</style></defs><g id="Layer_1-2"><g id="Layer_2-2"><g id="Layer_1-2"><path class="cls-1" d="M214.94,117.55c.08-1.06-.22-1.51-.91-1.37-.93,.82,.07,3.1,.91,1.37Z"/><path class="cls-1" d="M215.34,92.85c.4-.56-.48-3.8-1.27-3.54-.71,.91-.27,3.95,1.27,3.54Z"/><path class="cls-1" d="M274.53,91.67c-.57,.49-1.14,.99-1.68,1.5-1.28,.96-2.41,2.09-3.37,3.37,2.22-.77,5.42-2.01,5.05-4.86Z"/><path class="cls-1" d="M269.65,99.03c.08-1.06-.22-1.51-.91-1.37-.93,.82,.07,3.1,.91,1.37Z"/><path class="cls-1" d="M223.9,115.01c-.58-5.73-2.47-11.24-5.5-16.13-.61-1.32,.19-3.37-1.87-3.07,.84,5.66,3.45,10.48,4.81,15.99,.34,1.62,1.22,2.38,2.56,3.22Z"/><path class="cls-1" d="M267.34,156.71c-1.22,.99-2.52,1.88-3.73,2.9,3.08,0,6.41-2.52,6.62-5.78-1.02,.9-1.87,1.99-2.89,2.89Z"/><path class="cls-1" d="M228.14,104.08c-.38-2.32-1.16-3.84-3.28-4.96,.49,1.98,1.65,3.73,3.28,4.96Z"/><path class="cls-1" d="M155.18,109.97c.08-1.06-.22-1.51-.91-1.37-.93,.82,.07,3.1,.91,1.37Z"/><path class="cls-1" d="M134.98,116.7c.08-1.05-.22-1.5-.91-1.36-.93,.82,.07,3.1,.91,1.36Z"/><path class="cls-1" d="M256.81,149.44c1.99-.06,4.8-.38,5.89-2.31l-1.36,.26c-1.66,.29-3.22,.99-4.54,2.05Z"/><path class="cls-1" d="M262.82,103.39c-.12,1.36-.12,2.72,0,4.07,1.81-.47,2.58-4.95,0-4.07Z"/><path class="cls-1" d="M311.2,141.67c-1.68,2.16-3.8,3.46-4.59,6.25,3.16-2.32,7.79-6.6,6.44-11.02-.72,1.54-1.01,3.3-1.85,4.76Z"/><path class="cls-1" d="M235.23,125.69c.7,.15,1.4,.25,2.11,.3-2.25-1.91-4.37-3.96-6.35-6.15-1.36-1.47-2.12-3.73-4.36-3.96,2.31,3.72,5.21,7.03,8.59,9.81Z"/><path class="cls-1" d="M161.01,88.38c-.93,.84,.07,3.1,.91,1.37,.08-1.04-.22-1.49-.91-1.37Z"/><path class="cls-1" d="M282.35,79.06c-.5,.44-1.6,2.22-.29,2.33,1.18-.05,2.46-3.31,.29-2.33Z"/><path class="cls-1" d="M284.91,74.91c-.6,.61-1.46,1.97-.96,2.83,1.19,.67,3.37-4.06,.96-2.83Z"/><path class="cls-1" d="M289.84,63.97c-1.2,.56-1.23,2.05-1.18,3.17,.27,4.4,2.51-3.48,1.18-3.17Z"/><path class="cls-1" d="M267.16,147.67l1.47,.55c1.23-2.31,3.37-3.48,3.37-5.99-2.62,.96-3.55,3.11-4.84,5.45Z"/><path class="cls-1" d="M286.47,73.46c1.32,.56,3.53-3.23,1.78-3.5-.64,.82-2.28,2.42-1.78,3.5Z"/><path class="cls-1" d="M234.59,101.41c.5-.91-1.85-2.89-2.69-2.17-.49,.93,1.85,2.89,2.69,2.17Z"/><path class="cls-1" d="M280.58,134.52c-2.85,2.31,2.24,1.68,1.98,.05-.61-.36-1.35-.37-1.98-.05Z"/><path class="cls-1" d="M243.19,115.72c1.56-1.38,1.51-4.5-.3-5.68-.06,1.33,.13,3.26-.66,4.39-1.24,.6-2.53,1.09-3.85,1.46-1.78-.99-3.01-3.06-5.05-3.37,1.64,3.12,7.09,7.31,9.86,3.19Z"/><path class="cls-1" d="M281.18,82.29l-.5,.33c-2.19,1.19-2.23,3.3-2.71,5.49,1.72-1.32,2.46-3.85,3.22-5.82Z"/><path class="cls-1" d="M237.11,98.95c.48-.59-.36-2.52-1.21-2.08-.7,.86-.05,2.7,1.21,2.08Z"/><path class="cls-1" d="M242.3,108.84c.6-.84-.8-3.61-1.96-2.9-.4,.77,.94,3.38,1.96,2.9Z"/><path class="cls-1" d="M287.8,58.66c-.97,1.84-1.68,3.78-2.71,5.61-1.09,2.16-2.63,3.76-3,6.15,2.79-2.58,6.17-7.87,5.71-11.76Z"/><path class="cls-1" d="M248.24,122.66c-.63-1.9-1.36-3.23-3.21-4.21,.39,1.58,1.46,3.94,3.21,4.21Z"/><path class="cls-1" d="M76.75,143.61c2.95,.56,4.95-3.16,6.83-4.93-2.84,.69-5.29,2.46-6.83,4.93Z"/><path class="cls-1" d="M270.45,134.57c-.9,1.46,.93,1.97,1.41,.51-.12-.8-.59-.98-1.41-.51Z"/><path class="cls-1" d="M402.31,152.97c-2.88-.12-4.9-.64-6.53,2.2l1.51,.35c1.14-2.58,3.96-.94,5.02-2.54Z"/><path class="cls-1" d="M52.2,93.19c-1.41-.94-2.31-2.17-4.03-2.52,2.22,2.86,4.21,6.16,8.29,5.7-1.04-1.73-2.63-2.15-4.26-3.17Z"/><path class="cls-1" d="M267.82,104.2c-.91,1.08-1.99,1.84-2.66,3.11,3.22-.84,5.14-3.14,5.05-6.52-.83,1.11-1.51,2.33-2.39,3.41Z"/><path class="cls-1" d="M325.94,62.37c-.62,1.25,1.22,1.91,2.08,1.21,.44-.85-1.5-1.69-2.08-1.21Z"/><path class="cls-1" d="M30.26,40.17c.3-2.08-.19-4.2-1.36-5.94-.3,2.08,.19,4.2,1.36,5.94Z"/><path class="cls-1" d="M19.71,59.76c-1.07,.57-1.95,1.45-2.52,2.52,.39,2.07,4.65-2.15,2.52-2.52Z"/><path class="cls-1" d="M83.06,141.59c-1.28,1.46-2.99,2.74-3.89,4.46,1.75-.6,3.07-1.9,4.68-2.66,1.68,1.46,1.86-.05,2.89-1.27-.86-.77-2.79-1.57-3.68-.53Z"/><path class="cls-1" d="M336.89,65.36c-.25-.84-.77-1.09-1.53-.71-.67,1.11,1.33,2.25,1.53,.71Z"/><path class="cls-1" d="M374.09,158.96c-.41,1.25,2.35,1.25,1.94,0-.55-.51-1.4-.51-1.94,0Z"/><path class="cls-1" d="M271.97,141.05c1.76-1.22,3.42-2.59,4.94-4.1-.72,.03-1.44,.12-2.15,.25-1.36,1-2.55,2.09-2.79,3.85Z"/><path class="cls-1" d="M409,144.34c.46-.84,.29-1.3-.51-1.41-1.47,.48-.97,2.31,.51,1.41Z"/><path class="cls-1" d="M471.34,104.94c3.99-1.06,3.53-5,3.21-8.28-.96-4.88-4.11-7.46-6.88-11.61-1.96-1.04-4.08-1.08-5.82-2.52-3.09-2.78-7.77,.41-11.26-.6-2.67-.84-5.94,0-7.53,2.38-2.07,2.88-5.18,3.57-6.19,7.32-.45,3.03,2.31,5.97,2.74,8.93-.66,1.84-2.26,4.02-1.73,6.01,.35,1.95,.57,3.92,.88,5.89,2.75,.28,5.8-.51,8.42-1.27,.72-2.63,2.23-4.54-.41-6.56,.14-3.21-2.24-4.65-2.84-7.69-.52-1.89-3.47-1.58-3.74-3.43,.84,.05,1.68,.11,2.48,.18,0-2.52-3.24-.84-4.29,.13,.28-2.05,.34-1.91,2.26-2.52-2.05-1.57-.94-3.44,1.4-2.91,.36,1.68,1.62,1.68,3.06,2.14,1.36-1.94,1.8-3.37,.49-5.41,2.07,.23,2.42-.84,3.84-2.06,1.18,1.89,1.6,3.74,3.88,4.61,3,1.88,7.57-2.39,9.75,1.14,1.21,1.1-.66,1.38-1.3,2.16,1.89,2.28,.14,4.12-.31,6.62-.97,4.06-3.72,7.2-4.81,11.26-2.99,.45-4.1,.9-6.24,3-2.36,1.98-5.05,3.11-7.67,4.71,1.68,.19,3.37,.27,5.05,.47-1.86,2.52-6.35,2.15-9.13,2.52-.39,1.96,1.84,1.22,3.07,1.8,1.01,2.84-2.47,3.51-4.46,3.61-.63-3.66-4.6-2.18-6.96-1.29,1.1,.93,2.13,1.93,3.1,3-2.52,1.1-6.65,.49-8.11,3.01-.56,1.62,.25,3.73,.38,5.43-2.11,.65-4.35,.78-6.52,.37-4.84-.32-7.57,2.81-11.73,3.83-1.61-.77-4.92-1.09-5.89-2.34,1.36-2,6.73-1.37,8.95-1.97,5.39-1.34,8.55-4.91,13.71-7.31,1.64-1.03,3.9-1.68,5.05-3.21-6.14,1.29-11.5,6.13-17.11,8.8-2.66,.69-5.38,1.11-8.13,1.25-3.11,.08-5.05,2.31-8.42,1.54-4.4-1.3-9.12-.85-13.2,1.25-2.15,1.56-3.73,3.88-5.44,5.64-1.72-.03-3.2-1.24-3.56-2.93-.94,.4-1.15,1.33-2.05,.22,.63-1.27,2.37-2.59,2.32-4.01-1.14-2.79-5.14-4.28-6.65-6.57,1.13-.69,2.33-1.24,3.46-1.93-2.52-3.08-7.11-2.1-9.32-4.76,2.75-1.26,5.94-1.99,8.49-3.63-1.36-2.03-4.62-2.19-6.57-3.67-.63-1.51,.24-3.57-1.87-3.65,3.01-5.54,2.21-10.87,3.5-16.96,1.32-4.52-1.41-7.99,.05-12.43,2.2-2.68,4.73-5.12,4.81-8.78,.23-2.31-.48-4.21-1.33-6.24-.74-6.89,4.21-11.94,3.83-18.2,.11-1.24-.11-1.68-.66-1.45-.23,3.34-.96,6.63-2.17,9.75-3.55-4.81-1.1-9.48,1.03-14.31,.35-2.37-3.06-4.76-4.12-6.69,.62-3.59,2.97-6.04,2.52-9.87-1.5,1.06-3.07,3.05-4.98,3.13,.36-2.78,1.83-5.36,5.05-4.63-.59-1.46-2.3-.91-3.1-2.2-.29-.51-1.41-.21-1.91-.34-.71-3.54,1.34-6.82,.52-10.2-3.45-1.89-6.93-1.98-10.73-2.44-1.2,.24-2.25,1.43-3.32,2.04,.61-1.29,1.15-2.62,1.62-3.96-3.15,.3-5.16,4.5-8.32,4.12-2.79,.07-5.89,0-7.06,3.1-.84,1.37,.36,2.17,.84,3.48-1.84,1.08-4.55,1.56-5.76,3.37-1.02,1.15-2.74,1.68-3.99,2.59,1.41,0,2.81-.17,4.21-.29,.08,3.37-3.64,4.89-6.34,5.72,.41,.66,.84,1.3,1.28,1.96-3.37-1.62-6.4,0-9.88-.72-2.01-1.25-.24-5.35-1.75-6.73-5.34-3.22-13.2-4.56-18.96-1.81-5.37,3.08-8.91,9.13-13.06,12.94,.58,1.79,.59,3.29,2.67,3.91,3.22,1.03,7.44-.97,10.52-1.95,1.57,3.37-.32,5.47-1.04,8.74-2.59-.12-5.18-.72-7.77-1.04-3.47-.84-7.15,2.16-10.94,1-1.39-2.21-.8-5.15-4.25-4.84,.89,2.02,2.46,4.39,2.18,6.66-2.94,.66-1.93-4.66-4.84-4.07-2.1,1.5-3.83,2.99-4.76,5.49-.88,2.15-2.52,1.83-4.46,2.34,.72,.76,1.52,1.45,2.26,2.2-1.52,1.04-3.67,.76-5.49,1.17-1.39,1.45-2.62,4.02-4.54,4.77-1.04-.17-2.05-.5-3-.98,.37-1.04,1.3-2.14,1.17-3.25-.33-3.37,.08-6.61,0-9.95-2.85-.72-4.44,.54-6.78,1.84-2.09-.68-2.2-1.35-3.69,.77-.47,3.48-.79,6.99-1.42,10.46-4.35,2.58-7.62-3.74-9.26-6.84-.04-2.83-2.41-2.74-4.08-4.54-1.78-1.63-3.74-3.06-5.84-4.26-1.16-1.51-1.61-3.16-3.13-4.33-.73,3.3,2.03,4.51,2.34,7.5l-1.39-.13c-2.72-2.42-1.78-8.79-5.21-10.7,.09,2.85,1.58,5.66,2.22,8.46-4.21-1.84-6.79-6.88-10.69-9.33-.84,.41-2.15,.79-2.57,1.68,1.04,2.93,4.58,5.33,4.97,8.32-1.52,.28-2.38-1.68-3.42-2.52-.57,.99-1,2.04-1.29,3.15,3.66-.58,5.57,4.86,8.94,5.36-1.22-1.8-2.84-3.22-4.06-5.05,1.9,.24,3.04,1.9,4.38,3.11,1.58,1.68,3.6,3.32,4.49,5.44-.35,1.04-1.27,1.87-1.8,2.83,2.17,1.63,3.37,3.37,2.84,6.18-2.09,.08-3.73-.77-5.63,.42-2.09-2.43-4.87-3.69-7.27-5.75-6.94-1.17-13.18-6.74-18.42-11.12-4.11-3.78-6.73-8.27-9.8-12.82,0,.74,.08,1.49,.23,2.21,3.75,7.17,9.46,12.39,15.49,17.56-1.87,.94-3.56,2.19-5.01,3.7-1.62,.3-2.74-.46-4.21-.84-2.32,.63-4.32-.84-6.66-.15s-2.18-.98-3.29-2.38c-1.48,1.13-2.72,2.46-4.21,3.56-2.52-2.19-.42-4.6-.89-7.7-1.92,1.11-1.81,4.39-3.53,5.6-1.2,.25-2.42,.35-3.64,.58,0,.72,.05,1.45,.08,2.16-.92,.06-1.84,.06-2.76,0,1.13-2.27,.9-4.4,4.09-3.79-.4-1-.93-2.1-2.03-2.52-1.43-.7-3.27,.06-3.06-2.11-.29-2.07,1.62-2.01,2.95-2.95,.71-2.09,.16-3.91,2.42-5.05,3.48-1.84,7.1-4.21,10.94-5.2,2.61,4.46,1.54,11.35,5.21,14.88,.16-.98,.38-1.96,.47-2.95-3.55-3.59-2.41-10.46-5.39-14.42-1.06,.05-2.11,.23-3.17,.32,2.04-2.26,5.36-1.56,7.4-4.1,1.23-1.14,1.68-3-.35-3.52-4.27-1.68-10.18,.67-14.63,1.13-3.12,.22-5.64,1.84-7.8,4.01-2.16,2.16-5.26,3.69-7.31,6.07,2.17-.43,3.72-1.68,5.78-2.45-1.62,2.7-4.04,4.21-6.5,6.01-.97,.84-1.94,.72-3.13,.67,.05-.84,.1-1.64,.16-2.46-1.46,1.58-2.52,3.45-3.89,5.05-3.78-3.56-8.52-4.3-13.3-5.75-1.36,1.77-2.84,4.21-2.65,6.51,1.68-.23,1.61-1.68,2.85-2.6-.28,2.52-.35,5.05-.61,7.57-3.37,.72-2.63-1.01-4.21-2.99-2.84-.48-5.22,0-7.26-2.43,1.55-.46,2.97-.26,4.04-1.64-2.91-1.15-5.76-2.4-8.73-3.37-1.87-3.77-3.83-4.6-7.99-4.62-2.99-.2-3.37,3.8-2.1,5.76-2.94,1.83-6.11,2.09-9.46,2.42-2.45-2.32-5.19-5.36-5.61-8.84-.67,.66-1.28,1.37-1.94,2.05-1.68-3.98-4.6-6.38-8.22-8.52-1.46-.32,2.23-3.11,.33-2.82-5.37,.38-6.09-5.74-10.99-6.63-1.35-.38-3-.13-3.86-1.31-2.42-2.93-4.28-6.04-7.41-8.32,.33-.52,.66-1.04,1.01-1.56-2.52-1.14-5.44-1.41-7.96-2.75-.11-1.52,.6-3.06,.45-4.58-1.36-1.89-2.52,0-4.15,.35-2.38,.53-4.61,.1-6.22,2.31-1.83,2.75-5.24,2.69-7.13,5.51-4.4,6.14-8.74,11.86-14.84,16.37-1.58,1.34-3.32,2.16-2.75,4.6,1.14,.14,1.85-.67,2.71-1.28,3.04-2.66,6.88-4.55,10.61-6.17-2.25,3.89-6.13,4.07-9,6.89-2.43,2.68-5.5,5.22-7.38,8.28,3.41,4.13-1.51,7.75-3.66,11.03-1.68,2.07-.93,3.59,.18,5.66-.61,3.31-2.42,6.73-1.87,10.1,2.1,.45,3.26-.57,4.99-1.46,.97,0,1.39,1.58,1.83,2.26,3.26,6.11,6.38,12.46,10.55,18,1.89,2.91,4.38,5.24,6.12,8.26-1.97,1.77-4.25,3.16-6.73,4.1-1.3-.34-3.97-4.12-3.23-.63-1.45-1.56-2.82-3.19-4.1-4.89,.66-.78,2.16-1.51,2.24-2.6-2.84,.49-4.14,.84-6.73-.84,.69,2.1,2.7,3.43,.76,5.5-1.12-.7-2.15-1.52-3.26-2.24,.49,1.25,1.12,2.43,1.62,3.68l-2.28-.29c.26,.93,.58,1.84,.95,2.73,2.75,.11,5.35,2,7.73,3.32,.45,1.21-1.08,3.23-1.28,4.58,1.68-.71,3.17-1.91,4.92-2.34,.56,2.86-1.46,5.61-2.75,8.06-.51,1.68-1.86-.34-2.93-.49,.35,3.37,1.3,6.29,.44,9.77-.55,1.14-.17,3.07-1.96,2.62-1.04-3.48-1.03-7.57-2.67-10.79-.07,1.98,.08,3.95,.46,5.89-2.21-1.83-2.73-6.73-6.36-5.8-.45,1.11,1.78,1.77,2.37,2.52,1.28,1.93,2.75,4.52,.78,6.55-.63,1.16-4.28,3.25-.89,3.12,.25,2.05,.29,4.13,.11,6.19-1.57-.93,.11-3.91-2.33-4.94-.63,3.23,.84,5.39,1.94,8.23-.37,2.47-1.32,4.43-1.11,6.83,4.83,.46,0-7.81,4.81-7.41,.98,4.28-1.68,6.4-2.79,10.19,.34,1.07,1.02,2.1,1.16,3.2-.84,4.77-2.52,9.49-3.25,14.23,1.9,.16,3.37-2.52,4.38-3.86,1.02-1.34-.38-1.73-.97-2.9,.32-1.4,1.17-2.61,2.36-3.41,.98,1.28,3.21,3.3,2.35,5.05-1.06,2.41-1.94,4.91-2.62,7.46-2.52,1.22-.45-3.69-2.18-3.8,0,1.78-.5,4.35,.71,5.82,1.04,1.24,1.18,3.02,3.21,2.33,.42-3.87,.44-7.63,2.31-11.19,2.02-2.9-3.81-5.85-2.74-8.64,1.14-1.2,2.71-1.89,4.37-1.9-.33,3.37,1.68,5.4,3.37,8.06,3.13,4.61,5.05,9.63,7.04,14.77,.16,1.26-.3,2.6-.41,3.87,1.56,.19,3.12,.21,4.69,.41,.73,4.21-1.53,7.25-1.54,11.56,0,2.52-.77,4.96-.76,7.47,4.6,.97,.46-4.33,4.54-4.99,.19,2.52-1.15,6.42,.56,8.42,2.35-1.3,3.19-4.78,4.53-7.01,.84-2.79,3.17-5.98,.95-8.66-.78-1.34-1.82-.64-3.08-.74,.2-1.46,.53-2.89,1-4.28,2.13,.73,4.29,1.51,6.36,2.4,1.17,.46,1.2,2.61,2.73,2.33,1.68,.09,1.07-.33,1.36-1.59,3.2,1.6,6.7,2.52,10.28,2.68,.47,2.8-.54,5.89-.89,8.76-.84-.43-1.57-.92-2.39-1.32-1.68,.56-2.77,2.61-3.27,4.21-.45,1.95,1.17,2.87,2.04,4.45,.84,2.21-2.94,6.19,.44,7.33,1.99-1.07,2.85-2.81,3.88-4.7,1.39-1.26,3.98-1.4,5.3-3.04,.84-.73,1.31-1.74,2.59-1.46,3.37,.59,6.68-.42,10.1-.19,3.37-.26,4.9,2.52,8.42,1.61-1.46-.84-3.47-.76-4.21-2.31,5.35,.42,10.45,.08,15.81,.93l-.05,.59c-3.82,.6-6.99-1.21-10.65,.3,.75,.88,.9,1.26,2.17,1.1,5.19-.24,10.23,1.68,15.35,1.11,1.85-1.28,3.63-2.65,5.32-4.13-1.92-2.05-4.21-1.77-6.73-1.63,.14,1.8,4.79-.42,3.91,2.35-5.05,.92-8.5-1.73-13.34-2.31-2.73-.22-5.5,0-8.23-.19v-.62c3.86-.31,7.74-.2,11.57,.35,3.87-1.01,7.75-1.62,11.68-2.3,1.2-.11,2.11-1.47,2.76-2.38-1.94-1.89-4.28-2.52-6.64-3.66,.11-3.05,1.08-5.89,.4-9-1.23,2.11-1.4,4.33-1.68,6.73-.13,1.36-.99,1.75-2.26,1.68-.25-2.95,1.26-6,1.98-8.84,0-1.05,2.29-.36,1.99-1.38-.36-3.03-.74-5.82,.4-8.76,.97-2.15,.13-3.92,.06-6.09,.47-4.26,1.43-8.42,1.45-12.71-.09-1.39,1.97-2.17,2.22-3.52,.44-1.68,1.01-3.34,1.68-4.94,.21,1.9,.24,3.8,.35,5.71,1.22-1.14,2.55-2.15,3.98-3,.8,.6,1.67,1.1,2.59,1.47-.49-2.65-2.27-5-3.13-7.57,5.05,2.68,4.37,8.82,3.47,13.64-1.04,2.97,1.91,.34,3.16,.15-.27,1.15-.77,2.23-1.46,3.18,2.74-.09,2.58-1.1,3.48-3.31,1.73,1.04,.64,2.38,.69,4.02,1.02-.97,1.97-2,2.86-3.09,.39,1.75,.28,2.39,1.9,3.27,1.79,2.66,.94,6.51,2.14,9.43,.92,1.96-1.24,4.47-1.77,6.4,1.12,2.78,0,4.74,3.72,5.48-1.53,2.01-4.58,2.79-4.95,5.31,1.29-.92,2.66-1.72,4.09-2.41-.61,2.35-2.64,4.33-3.07,6.59,1.31,.35,2.31-2.21,3.84-2.42-.78,1.83-2.1,3.09-1.86,5.13-.33,2.14,1.62,2.9,3.37,3.01,1.01,2.08,1.55,4.37,1.57,6.68,2.17,.65,2.69,.84,3.8,2.84,2.44-2.22,3.37-2.09,5.98-.19,1.46-.72,1.48-1.99,2.38,.13-2.62,3.02-7.3,.44-9.12,3.37,6.17,.45,11.65-.49,17.83,1.74,5.18,3.16,12.04,1.39,17.81,1.47,2.11,.37,3.37-1.51,5.5-1.3-.1,2.86-.88,5.26-.14,8.16-1.34,1.23-5.4,1.47-2.95,3.87-1.83,2.21,.5,2.84,1.68,4.54,1.76,1.62,1.41,3.69,2.63,5.77,2.65,1.08,5.48,1.88,8.14,.32,2.49-1.33,4.91-2.79,7.25-4.36-.29-2.71-2.33-5.89-.58-8.32,1.11-3.22,6.22-.29,8.22-2.74,2.37-2.52,5.39-3.08,8.48-4.25,2.37-.93,5.05-2.19,7.66-2.23,1.09,.49,1.8,1.73,2.68,2.52,1.36-.96,3.43-4.44,5.26-2.85,1.64,.56,1.19,2.07,1.74,3.47,2.71,.59,5.76-.24,8.53-.42,1.25-2.87,4.21-4.99,7.04-6.1-.68,1.83-2.12,2.79-3.37,4.21,1.34,1.47,5.38,1.35,7.36,2,.59,2.34,1.05,4.72,1.36,7.11,1.1,1.79,2.52,3.43,3.78,5.1,.24-2.28,0-4.33,1.41-6.3,.61-1.3,2.6-3.44-.17-3.37,.19-1.47,.5-2.93,.84-4.38,1.52-3.04,6.28-2.16,7.46-5.23,1.32,1.29,3.22,2.66,4.01,4.31-.54,3.51-1.73,6.82,.62,9.97,1.26-3.16,2.08-6.48,2.41-9.87,3.08-1.91,6.29-3.59,9.6-5.05,.35,1.46,0,3.69,1.24,4.68,1.18,1.42,4.21,.36,4.02,2.66,.84,1.88-3.12-2.38-2.47,.06-1.05,2.46,3.27,5.52,4.83,3.16-.13-1.68-.96-3.28-1.28-4.94,.28-2.42,.58-4.85,.84-7.27,2.38-.28,4.77-.35,7.15-.63-.06,1.8-.29,3.59-.41,5.38,4.42,.12,5.84-2.87,9.42-4.58,.31-.77-.54-2.74,.84-1.5,1.25,1.37,3.06-1.21,4.44-.29,1.78,1.23,3.08,.74,5.09,.4-.84-2.88-1.43-1.62-3.84-1.64,.63-2.68,.84-3.37,3.61-4.12-.08,.84-.16,1.62-.24,2.44,1.21-.93,2.3-2.05,3.57-2.88,1.02,.73,1.84,3.29,3.05,1.51,1.92-1.31-2.26-.48-1.68-2.52,2.77-.21,5.66-.84,8.42-.43s5.89-.95,8.33-2.16c-3.08-.42-5.41,1.46-8.42,1.41,3.47-1.96,7.14-3.57,10.94-4.79,2.76,.56,1.51,3.57,.11,4.93-.61-.49-1.2-.98-1.79-1.48,1.22,4.21-.44,7.96,3.62,10.47,2.46,.35,7.09-.34,6.99-3.65-.13-1.31,1.99-1.88,2.77-2.74l-1.44-1.78c1.95-1.51,4.1,.24,6.54,0,3.02,.32,5.05-3.96,3.65-6.16-2.79-1.04-5.85-1.29-8.63-2.52,1.9-1.43,4.07-2.47,6.38-3.05,.21,1.08,.42,2.16,.62,3.26,1.36-1.26,1.27-2.83,1.95-4.45,1.55-.84,3.71-.33,5.28-1.45,1.57-1.12,3.95-.68,5.79-1.06,3.47-.77,6.83-2.16,10.32-2.81,3.91,0,7.72-.93,11.6-.56,2.28-.8,4.12-2.84,6.45-3.7,.67,.84,.9,4.21,2.26,2.43,2.15-1.24,.05-3.64,2.28-4.42,1.63-1.39,3.54,1.05,5.13,1.64,3.09-.84,2.86-3.71,5.2-5.55,2.12,.12,3.48,1.14,5.1-.84,2.52-1.89,2.17-3.68,2.45-6.54,.98,.07,1.95,.2,2.94,.19,1.62-1.76,2.79-3.88,3.41-6.19,3.11-.84,5.89-.6,7.95-3.53,1.68-1.53,3.44-5.67,6.06-5.15,.07,.51,.13,1.02,.19,1.52,4.21-1.57,9.16-3.16,12.34-6.39,1.58-1.77,5.11-.84,7.3-1.27-.52-.74-1.11-1.43-1.76-2.05-.84,.34-1.63,.76-2.46,1.12,1.08-2.52,2.1-5.71,4.85-6.73,1.55-1.2,1.68-3.96,3-5.42,2.94-.42,6,0,8.96-.29,2.61-.33,3.69-3.66,4.91-5.67-1.83-1.94-4.7-2.52-6.31-4.58-.77-1.68,.59-2.66,1.62-3.77,1.15,.72,2.14,1.61,3.27,2.31Zm-26.72,.84c1.91,1.03,1.6,2.14,1.46,4.06-2.58,.85-1.24-2.59-1.46-4.04v-.02Zm-3.27,4.95c-.94-1.77-1.27-3.79-.95-5.77,1.36,.86,2.51,2.01,3.37,3.37-.59,1-1.42,1.83-2.42,2.42v-.02Zm-.08-9c1.09-.24,2.06,1.26,.66,1.68-1.41,.21-2.04-.96-.66-1.67v-.02Zm-.68-5.79c1.78-1.21,5.19,4.7,1.45,3.89-1.15,.1-3.57-3.59-1.45-3.88h0Zm14.06-8.75c.5-.85,1.13-1.61,1.88-2.25,.99-.24,2.02-.28,3.03-.13,.62,2.21-3.53,2.13-4.91,2.39v-.02ZM205.51,39.35c1.69,1.01,3.11,2.42,4.12,4.12-2.12-.32-3.79-1.98-4.13-4.1l.02-.02Zm-30.97-10.1c1.59-.5,1.68,.91,.45,1.55-1.61,.52-1.72-.89-.47-1.53l.02-.02Zm-5.05,.12c1.04-.17,2.09-.19,3.13-.08-.9,1.42-2.45,2.29-4.12,2.34-.11-.88,.28-1.75,1.01-2.25l-.02-.02Zm-7.52,8.53l1.35-.23c.08,2.87-2.02,2.44-4.12,2.34,.64-1.02,1.62-1.76,2.78-2.1v-.02ZM8.43,93.16c.29-.56,.71-1.05,1.22-1.41l.55-.35c2.35,1.52,4.31,3.75,4.21,6.73-2.49-.95-4.59-2.69-5.98-4.97Zm-2.29,30.57c.69-.14,.99,.31,.91,1.37-.84,1.75-1.83-.53-.91-1.37Zm-1.68,6.89c-.1-.95-.1-1.9,0-2.84,.95-.1,1.9-.1,2.84,0,.11,1,.17,2.01,.16,3.02-1.01,0-2.03-.05-3.04-.15l.03-.03Zm44.61,61.73c-.04-1.39,.3-2.77,.98-3.98,2.1,.29,.74,4.74-1.05,4.01l.08-.03Zm3.85,3.02c-.68,1.44-.63,3.04-2.16,3.79,.2-2.06,.4-5.58,3-5.94-.35,.75-.62,1.46-.91,2.18l.08-.03Zm42.57-.94c.69-.18,1.4-.25,2.11-.21,.99,2.71-3.53,1.26-4.95,1.41,.91-.48,1.86-.88,2.84-1.2Zm314.35-53.15c.44,1.87,.08,3.84-.98,5.45-1.34,.61-2.52-1.9-3.93-.6-.8,.89-1.68-1.26-2.48-1.51-3,2.05-6.9,2.26-10.1,.53,.76-1.15,.98-1.38,2.43-1.4,5.5,0,9.33-3.62,15.06-2.47Zm-11.99,8.04c-.63,.48-3.96,1.68-2.79-.32,.47-.55,3.06-.77,2.82,.32h-.03Zm-4.09,.92c-2.13,.22-4.27,.25-6.4,.11l1.81-1.41c1.52-1.25,2.21-2.32,4.4-1.78,.13,1.02,.21,2.06,.23,3.09h-.03Zm4.74-12.06l1.24-.36c-.74,2.71-2.78,4.41-5.66,4.07-.82-2.93,2.63-2.71,4.45-3.7h-.03Zm-13.47-.9c3.76-1.58,6.81-.84,10.61,0-2.45,1.06-2.37,2.19-3.41,4.49-2.81-.84-5.24-1.91-8.26-1.31-.36,2.29,2.9,3.28,4.68,2.92,1.23-.27,2.2,.43,1.81,1.75-1.24,.34-2.51,.54-3.79,.61-2.41-2.04-4.65-2.64-7.69-3.19,1.62-1.97,3.59-4.39,6.06-5.26h0Zm-5.25,7.34c1.52-.27,5.31,.04,4.86,2.32-1.51,.27-5.31-.04-4.86-2.32h0Zm4.21,4.07c-.2,1.54-2.21,.4-1.52-.71,.79-.38,1.29-.14,1.56,.71h-.03Zm-8.21,.57c-.14-2.89,3.5-.31,4.6,.4-.7,1.13-1.54,2.15-2.24,3.27,2.15-.09,3.59-1.73,5.74-1.68,2.81-.13,5.62-.07,8.42,.18-3.01,2.98-8.46,4.43-12.62,4.03-5.05-.39-9.62,.94-14.39,2.23,2.05-3.16,6.04-9.81,10.5-8.43h0Zm-13.25-4.05c-1.15,.71-2.84-1.05-1.96-2.16,1.11-.87,2.45,1.25,1.97,2.16h0Zm1.22,7.09c-.26,2.23-2.89,2.52-4.35,3.88-.56,.84-1.02,1.73-1.54,2.58-.07-1.03,0-2.06,.21-3.06,.61-2.25,3.8-2.51,5.69-3.35v-.05Zm-4.15-3.47c.78,.38,3.32,1.19,3.05,2.26-1.07,1-2.44,1.63-3.9,1.78-.16-1.57-.25-2.78,.86-4.02h0Zm2.64-1.62c2.74-.47,2.18-.12,2.18,2.27-1.38-.56-4.5-.3-2.17-2.26h0Zm-2.06-5.43c-1.46,.88-2.17-1.16-1.3-2.15,1.42-.88,2.14,1.16,1.3,2.15Zm-1,5.37c.59,.73-1.31,2.63-2.04,2.04-.51-.62-.41-1.53,.21-2.04,.53-.43,1.3-.43,1.83,0Zm-2.1,15.74c-.05-1.68,.58-1.52,1.88-2.14,1.26-.33,2.57-.38,3.85-.15,.38,2.54-4.15,2.58-5.77,2.29h.04Zm-.6,2.01c1.13-.55,2.44-.55,3.57,0,.53,1.1-4.18,1.09-3.61,0h.04Zm5.56-7.05c.32-1.62,1.37-3,2.84-3.74l1.25-.38c-1.07,1.96-1.88,3.47-4.13,4.12h.04Zm9.57-10.47l1.34-.31c-1.68,2.26-3.97,3.99-6.61,4.99,1.15-1.92,2.98-4.04,5.23-4.68h.04Zm-.95-11.96c1.46-.84,2.17,1.16,1.3,2.15-1.51,.88-2.21-1.16-1.34-2.15h.04Zm-2.37,5.89c.84-.71,3.2,.07,2.72,1.34-.61,.53-3.16-.5-2.76-1.37l.04,.03Zm-.93,2.52c1.62-.6,2.47,.12,3.22,1.5-.91,1.47-2.48,2.39-4.21,2.45-.08-1.52-.59-2.98,.94-3.94h.04Zm-.27-16.29c-1.95,0-3.16,.54-4.21-1.5,1.94,0,3.19-.53,4.17,1.51h.04Zm-4.38,5.67c0,.5,1.41,2.58,.07,1.95-1.81,.09-1.68-1.09-2.31-2.4,1.4-.66,1.83-1.51,2.24,.45Zm-.46-16.26c1.41-.31,3.37,1.2,4.67,1.73-1.32,2.23-4.21,2.52-6.53,2.12,.13-1.47,.79-2.84,1.86-3.85Zm-2.9-9.65c-2.31,.96-1.91-3.18-.49-3.72,1.03-1.39,.49,3.27,.49,3.72Zm-5.84,16.99c-2.14,2.57-4.94,7.2-8.86,5.64-.58-2.43-1.46-4.81-1.91-7.27,1.52-2.59,2.91-6.4,5.97-7.37,2.68,.6,5.8,2.91,6.62,5.55-1.45,1.57-3.81,2.3-4.38,4.41,.88-.35,1.73-.66,2.6-.95h-.03Zm-2.08,20.51c1.2-1.08,2.52,.24,3.13,1.35-1.36,1.56-3.13,1.78-5.09,1.62,.58-1.05,1.24-2.04,1.99-2.97h-.03Zm0-5.29c1.26-.62,1.91,1.22,1.21,2.08-.87,.44-1.71-1.49-1.21-2.08h0Zm-2.48,6.99c-1.04,2.17-2.78,.48-4.49,.24,1.42-1,2.9-1.9,4.44-2.71,2.52-1.3,.64,1.65,.05,2.47h0Zm.68,3.95c2.67-.72,.29,2.71-.91,2.1-.38-.78-.07-1.48,.91-2.1h0Zm-5.18-6.1c-.15-1.51,.8-2.18,1.87-2.99l.55-.33c3.53,.98-.45,4.09-2.42,3.32h0Zm0,4.41c1.73-.13,2.26-.18,3.15,1.4-1.02,.45-2.08,.77-3.17,.98-.02-.79,0-1.58,.07-2.37h-.04Zm.9,3.32c1.78,2.31,1.37,4.28,.08,6.69-.53-2.4-.9-4.3-.04-6.69h-.04Zm1.68,11.83c.8,.12,.98,.6,.51,1.41-1.46,.9-1.96-.93-.5-1.41h0Zm-.11-3.52c0-4.06,2.26-6.6,5.29-8.91,.68-.17,1.38-.27,2.09-.29-1.91,3.22-4.1,7.23-7.37,9.21h0Zm2.64-20.33c-.6-.13-.98-.72-.85-1.32,.09-.43,.42-.76,.85-.85,1.14-.03,1.14,2.2,0,2.17h0Zm5.89-23.22c.84-.46,1.3-.29,1.41,.51-.47,1.46-2.31,.95-1.41-.51h0Zm-1.18-.45c-1.91-.53-3.7-1.99-5.66-2.21-1.83,.46-3.36,1.69-4.21,3.37-.63,.79-1.09,2.73-2.37,2.41-.2-3.88-.7-7.74-1.51-11.54,.77-1.05,1.74-1.94,2.86-2.62,2.13,2.19-.38,6.86,2.42,8.34,.19-1.59,.21-3.22,.49-4.8,.9-1.81,3.14-.47,4.66-.4-.51-.93-1.98-2.01-1.99-3.04,.13-3.18,3.98-3.28,6.26-4.99,.17,3.64,.35,9.19-3.1,11.44,1.6,.22,3.2,.39,4.8,.61-.46,1.63-.89,2.85-2.63,3.44h-.03Zm-19.16,43.34c-1-.49-.77-2.4-1.1-3.37-.49,.84-.93,1.68-1.47,2.52-2.15-1.12-1.8-2.89-1.45-4.95,2.22-.37,3-1.96,3.37,1.17,1.01-.98,1.36-2.21,3-2.2,.7,3.12-.37,4.61-2.33,6.82h0Zm2.01,2.71c-1.09,1.25-4.14,.54-1.83-1.05,.82-.45,2.85-.29,1.84,1.05h0Zm-6.02-10.47c.91-3.01,1.09-5.74,4.27-7.22,1.45-1.24,1.68,2.05,1.89,2.89-1.56,2.96-2.21,5.13-6.15,4.33h0Zm6.34-.12c-1.46,.9-1.97-.93-.51-1.41,.81,.16,.98,.6,.54,1.41h-.03Zm.33,28.89c.8,.12,.98,.6,.51,1.41-1.46,.9-1.96-.93-.51-1.41h0Zm.18-9.18c.84-.72,3.2,1.26,2.69,2.17-.83,.72-3.17-1.25-2.68-2.17h0Zm2.89-14.49c.32-.68-.2-4.52,.95-3.98,.2,2.44,.16,4.9-.1,7.34-1.64-1.01-.93-1.76-.85-3.36Zm.84-13.54l-1.27-.18c-2.6-5.53-3.89-11.57-3.8-17.67l-1.41-.32c-.24-2.52,3.37-4.29,3.3-7.01,.32-3-1.42-4.8-2.37-7.47,.93-.68,1.96-1.23,3.05-1.62,1.23,5.14,1.62,10.44,1.16,15.71,2.03,6.1,1.64,12.25,1.35,18.56Zm-23.93-33.37c-.99-3.31-1.36-6.77-1.08-10.21,2.59,3.58,4.94,5.12,8.88,6.99,.47,2.17-1.24,4.09-.27,6.65,3.02,0-.12,2.52-1.12,3.23-2.68-2.52-2.4-6.02-6.42-6.66h0Zm3.73,7.91c-.99,.5-2-1.14-1.36-1.94,.98-.5,1.99,1.14,1.36,1.94Zm-8.96-57.62c2.58-.89,.52,2.52,.72,3.81l1.62-1.24c.09,1.89,.06,3.77-.08,5.66-1.28-2.9-3.09-4.81-2.26-8.23Zm1.39,15.86c-1.32-2-1.81-4.43-1.38-6.79,1.09,2.09,1.57,4.44,1.38,6.79Zm-1.34-23.52c1.59-.5,1.68,.91,.45,1.55-1.59,.5-1.7-.91-.45-1.55Zm3.01,31.14c-.92-1.83-1.39-3.85-1.4-5.89,1.73,1.83,1.73,3.41,1.41,5.87v.03Zm-1.51-35.35c-2.47,.48-2.09-2.27-.29-2.81,3.23-1.2,6.02-4.65,9.38-4.81-.84,3.52-3.16,3.42-5.89,4.89-.98,1.62-.75,3.03-3.2,2.68v.06Zm11.61,54.24c-1.04,.1-6.03,1.75-3.78-.8-.84-1.34-1.97-2.52-2.8-3.88,.72-1.24,2.3-3.32,3.91-2.19,.99,1.96,2.98,4.6,2.68,6.87Zm-2.23-13.64c.69-.14,.99,.31,.91,1.37-.84,1.75-1.83-.53-.91-1.37Zm1.63-9.52c1.25,1.41,1.14,4.78,1.44,6.73-1.88-2.01-1.68-4.16-1.44-6.71v-.03Zm-3.61-15.49c-.84,.44-1.68-1.49-1.21-2.08,1.29-.62,1.94,1.22,1.21,2.08Zm-1.13-7.11c1.68-.97,1.9,4.01,.67,3.73-.53-1.17-.75-2.45-.65-3.73h-.03Zm1.48,22.91c1.09-.27,1.05,3.02-.06,2.84-1.36-.59-.68-2.05,.08-2.84h-.03Zm.5,13.14c-2.23,.38-5.54-2.08-3.09-4.12,1.73,.88,2.48,2.39,3.08,4.12h0Zm-4.28-5.22c-1.46,.84-2.17-1.16-1.3-2.15,1.49-.88,2.21,1.16,1.36,2.15h-.07Zm1.68-22.83c-.99,.5-2-1.14-1.36-1.94,1.05-.5,2.06,1.14,1.43,1.94h-.07Zm-.84,6.84c-1.46,.84-2.17-1.16-1.3-2.15,1.49-.88,2.21,1.16,1.36,2.15h-.07Zm-2.04,20.71c.77-.84,2.84,1.31,3.7,1.68-.8,1.29-1.89,2.39-3.18,3.19-1.63-1.8-2.05-2.82-.5-4.87h-.03Zm6.73-21.64c-.7-4.32,.18-8.77-.72-13.14,2.8,1.17,4.06,1.46,7.1,.93-.04,1.64-.22,3.27-.52,4.88,1.44-.98,1.32-1.68,1.44-3.37-.09-3.68,2.38-6.44,2.52-10.1,0-2.96,1.92-4.84,4.44-6.05-.99,2.1-2.21,3.79-2.72,5.99,3.22-1.57,3.75-6.01,5.29-8.94,1.12-.37,1.58-.17,1.37,.61,.63,3.05-2.2,4.44-1.63,7.46,.69,.91,1.42,1.79,2.21,2.63-.16,1.29-.42,2.52-.5,3.84l2.31-.29c-.9,1.18-1.71,2.43-2.43,3.73,1.11-.45,2.2-.96,3.37-1.36-1.14,3.9-4.21,4.7-6.91,7.18-1.17,2.01-2.52,4.4-4.78,5.4-2.22,.28-1.23-2.15-2.37-3.37-.72,3.37,.62,4.33,2.37,6.73-.67,1.22-1.5,2.35-2.45,3.37-2.56-1.79-5.42-3.64-7.37-6.14Zm20.2-26.27l.51-.34c.13,1.87-1.45,3.59-2.52,5.05-2.33-1.01,.68-4.01,2.02-4.71h0Zm.72-14.66c4.33,2.32,4.47,9.89-.08,11.69,.34-1.47,.97-2.81,1.41-4.25-.21-2.5-.98-4.96-1.31-7.44h0Zm10.73,26.09c-.93,1.9-2.62,2.23-4.3,3.27-1.97,1.5-3.27,3.37-5.76,4.16-.33-2.52,2.52-4.16,3.54-6.47,.84-1.68,2.28-1.68,3.95-1.79-1.16,1.03-2.86,1.68-3.37,3.11,2.07-.74,3.83-1.74,5.94-2.27h0Zm-1.56-27c.05-1.45,.21-2.89,.47-4.31,.36-.77-.05-4.12,1.06-3.91-.15,2.29,1.17,7.21-1.52,8.21h0Zm4.46,13.47c-.09-2.25,.18-4.51,.79-6.67,.34,.3,.65,.62,.94,.96-.33,2.98-.33,5.96-.56,8.95-2.34,.64-.9-1.87-1.17-3.22v-.02Zm1.88,8.99c-2.26,2-1.13-1.41-1.68-2.79s1.68-1.94,2.52-2.62c.45,2.47,1.84,4.79,1.91,7.3-1.5,.03-1.83-.93-2.74-1.88v-.02Zm2.37,4.87c-1.39,1.03-1.81-1.02-1.02-1.87,1.46-.82,2.01,.98,1.03,1.89v-.02Zm-2.22,10.27l-2.3-.06c-.84,1.73-.15,3.7-1.04,5.35-.34,1.5-3.08,3.37,.05,3.06-1.85,4.38-4.05,8.58-5.82,13-1.29,3.66-4.61,3.43-7.64,4.9,1.96,.09,3.92-.08,5.84-.5-.31,2.66-1.53,5.13-3.46,6.99,1.91,2.52-2.52,3.37-4.01,4.36,.42-1.09,.93-2.15,1.39-3.24-1.28,.71-2.52,1.51-3.69,2.39-.21-2.7-2.42-7.12-1.55-9.45,3.26-1.49,5.6-4.46,6.3-7.97-2.82,2.05-2.92,5.71-6.51,6.52-1.37-1.16-2.3-2.76-2.62-4.53,1.18-.13,2.18,.39,3.06-.57,2.77-2.68,4.92-5.34,8.8-6.46,1.94-3.1,3.65-6.27,5.7-9.36-.77-2.58-1.68-4.5-1.15-7.29,1.97-1.68,3.92-3.47,5.98-5.05,1.49,2.26,3.19,5.09,2.68,7.89Zm-5.27,28.11c-1.56,.98-3.74,.98-5.52,1.33,.64-3.45,1.98-5.98,5.79-6.35,0,1.36-.65,2.52-.94,3.76,.26,.41,.49,.83,.71,1.25h-.03Zm-1.84,4.59l1.27-.39c-1.12,2.12-2.63,2.9-4.96,3.28,.97-1.27,2.25-2.26,3.72-2.9h-.03Zm-3.71,.48c-1.45-.26-.95-2.08,.18-2.43,1.39,.07,1.06,2.35-.14,2.43h-.03Zm3.47-11.05c.41-1.46,.91-2.9,1.49-4.3,1.59-.96,3.29-1.75,5.05-2.35-.63,1.95-2.1,2.68-3.56,3.91-.97,.92-1.89,1.9-2.95,2.74h-.03Zm4.35-10.51c1.14-.97,.73,3.81-.99,3.82,.11-1.41-.55-3.09,1.03-3.82h-.03Zm-19.72,23.46c2.52,2.52-1.57,6.06-3.95,6.37,.33-1.18,.89-2.26,1.28-3.42-.24-2.89,.09-2.26,2.67-2.95Zm.84,5.05c.8,1.6-1.26,2.21-2.46,2.37,.41-.68,1.32-2.89,2.46-2.31v-.05Zm-2.1-26.84c1.36-1.08-.77,5.1-2.15,2.38-1.63-1.04,1.46-1.99,2.15-2.38Zm-4.38-.45c-.27-1.96,1.26-2.25,2.69-2.91,1.74-.56-1.26,3.85-2.69,2.91Zm4.89-.91c.68-1.68,2.69-3.02,4.21-3.93,1.57,.56,4.68,.84,4.21,3.18-.97,3.27-5.05,5.24-7.41,7.57-3.07-3.16,2.57-6.58,4-9.17-1.73,.64-3.27,1.63-5,2.34Zm4.44-5.05c-.44-1.18,1.9-2.79,2.65-3.64l.46-.39c.38,1.94-1.03,4.35-3.11,4.06v-.03Zm-6-.84c.96-1.25,1.14-4.62,3.15-2.86,1.87-1.07,3.63-3.95,5.89-3.69-1.14,3.69-5.05,6.8-9.04,6.55h0Zm11.78,1.76c.47-1.91,1.13-3.76,1.97-5.54,1.62-.45,2.35-.65,2.15,1.39-.28,2.31-1.3,4.82-4.12,4.15h0Zm-19.7,8.63c-.15-.84-.28-1.68-.38-2.58,2.21-.39,4.46,4.5,2.13,5.62-1.99,.82-1.25-1.89-1.75-3.04h0Zm3.9,2.8c1.05-1.3,.35,2.52,.45,2.88-1.13,.25-2.32-.06-3.17-.84,.83-.78,1.74-1.46,2.73-2.04h0Zm.31,33.25c-2.97,.24-1.92-1.08-2.47-3.27-.2-1.42-.34-2.84-.4-4.28,2.05,1.57,2.25,5.18,2.86,7.54h0Zm-1.26-15.71c.69-.14,.99,.31,.91,1.37-.84,1.75-1.83-.53-.91-1.37Zm-.04-12.8c1.01-.14,2.03-.11,3.03,.08,1.47,3.07,2.09,6.48,1.81,9.87-3.3-1.9-5.09-6.23-4.84-9.93v-.03Zm1.75,11.99c1.39-.72,2.42,2.77,.84,2.85-1-.5-1.4-1.71-.91-2.71,.02-.04,.04-.08,.06-.12v-.03Zm1.81,9.22l.54-.39c2.79,2.71,2.87,4.81,2.37,8.56-1.96-1.79-3.33-4.14-3.92-6.73,.04-.63,.43-1.19,1.02-1.44Zm22.57-4.21c.69-.14,.99,.31,.91,1.37-.84,1.75-1.83-.53-.91-1.37Zm1.78-17.59c1-1.4,.4,3.37,.48,3.84-1.67-.88-2.31-2.65-.48-3.81v-.03Zm2.52-6.05c2.7-1.4,.7,3.91-1.02,3.03,.14-1.04,.49-2.05,1.02-2.95v-.08Zm1.54-23.64c2.29-.4,1.12,1.15,1.34,2.6,0,.71,0,1.41-.08,2.13-2.27,1.04-1.11-3.51-1.23-4.7l-.03-.03Zm2.52,19.7c-.84-1.41,.4-2.52,1.75-2.79,1.8,.23-.72,3.52-1.68,2.81l-.07-.03Zm2.99-4.28c-1.87,.13-2.47,.72-3.25-1.32-.37-.61-.74-1.24-1.1-1.86,1.12-1.64,2.33-3.2,3.64-4.69,1.89,2.48,2.69,5.16,.77,7.89l-.07-.03Zm-.35-30.76c-.36-1.63-.74-3.27-.96-4.93,2.29-.16,3.45,3.95,1.03,4.96l-.07-.03Zm-.9,1.68c-.84,1.73-1.83-.54-.91-1.36,.74-.11,1.06,.36,.98,1.41l-.07-.04Zm-.09,9.26c-.2,1.54-2.21,.4-1.53-.71,.83-.34,1.33-.1,1.6,.75l-.07-.04Zm.16-25.67c1.08-1.19-.42,3.09-.53,3.58-2.74,1.23-.43-3,.6-3.53l-.07-.04Zm-.98,29.22c2.52,.54,1.83,4.42-.84,3.97-.09-1.5-.36-2.78,.91-3.93l-.07-.04Zm-2.58,9.85c0-1.28-.18-2.21,1.05-2.96,2.67-1.42,.72,3.91-.98,3l-.07-.04Zm.13-23.15c1.09-.27,1.05,3.02-.06,2.84-1.31-.55-.64-2.01,.13-2.8l-.07-.04Zm-2.95-22.44c-.5,2.15,1.12,4.13-1.3,5.33-.08-2.17-.03-4.35,.13-6.51-.29-1.18-.71-2.32-.97-3.51,2.34-.24,2.42,3.09,2.14,4.7Zm-4.09,10.27c-2.82-.93-.75-3.42-.33-5.26,.31-.98,.6-1.98,.84-2.97,1.5,3.28,2.01,5.24-.51,8.23Zm-1.31-18.98c.84-.61,1.96-.65,2.84-.09,.72,1.92-4.05,2.36-2.84,.09Zm-3.43-.08c.89,.4,2.88,.66,2.17,2.08-1.35,.34-2.71,.59-4.07,.84,.34-1.14,1-2.15,1.9-2.92h0Zm-1.84,8.2c-.4-3.48,1.36-5.65,4.98-4.9,.24,1.89-2.19,2.87-3.32,4.09-.43,.13-2.12,2.58-1.67,.81Zm2.74,11.78c1.24,2.52,2.04,3.54,0,5.95-.24-1.98-.24-3.97,0-5.95Zm-1.81-6.21c-.26-2.04,.51-3.71,1.29-5.53,.2,1.09,.4,2.17,.59,3.26,.15,.76,.28,1.51,.38,2.27-.75,.03-1.5,.03-2.26,0h0Zm2.3,17.45c.43,.9,.73,1.86,.88,2.84-1.04,.19-2.1,.38-3.15,.55-.84,.15-1.68,.29-2.52,.41,1.04-2.9,1.92-3.2,4.79-3.8Zm-4.54-24.78c-.56,3.5,.93,6.68,.35,10.2-2.15-1.46-3.18-3.75-5.5-4.96,.67,6.3-1.62,13.47-7.19,16.93,2.64-4.8,3.53-10.1,5.69-15.08l-2-.6c1.26-1.18,2.23-2.69,4.13-2.46,2.07,.31,2.74-3.16,4.53-4.05h0Zm-2.72-.55c1.34,.08,.56,1.98-.35,2.19-1.33-.09-.56-1.99,.36-2.2h0Zm-7.57-5.88c1.46-.88,2.17,1.16,1.3,2.15-1.44,.89-2.15-1.15-1.27-2.15h-.03Zm6.03,4.44l.51-.32c-.29,1.88-1.9,3.03-3.11,4.36-1.21,1.33-2.52,2.83-4.37,3.11,1.83-2.82,4.21-5.25,6.99-7.14h-.03Zm-8.71,16.4c.97-1.22,2.05-2.34,3.22-3.37-.41,2.19-1.05,4.33-1.92,6.38-1.68,1.16-2.86,1.75-4.61,.2,.56-1.8,1.94-2.17,3.33-3.21h-.03Zm-4.08-5.8c.8,.12,.98,.6,.51,1.41-1.44,.91-1.94-.93-.49-1.41h-.03Zm-.69,5.35l.51-.34c-.45,2.24-2.75,4.01-4.21,5.71-.11-2.68,1.82-3.91,3.72-5.36h-.03Zm-3.47,9.16c1.13-.31,1.01,2.26,.47,2.74-1.13,.31-1.01-2.26-.47-2.74Zm.2,5.97c1,.6,1.89,1.36,2.86,1.99,.1-4.38-.29-7.98,2.87-11.46,.73-.11,1.47-.14,2.21-.09-.47,2.06-.66,4.81-2.93,5.65-.8,3.07,0,8.87-3.11,10.88-3.43,1.12-4.4-.88-6.73-2.77-1.48,.28-2.9,.84-4.38,1.17,.08-2.26-1.16-4.43,1.05-5.89,1.39-.99,2.86-3.65,4.76-3.1,.31,2.2,.41,4.43,.68,6.62,.99-.92,1.9-1.92,2.72-3h0Zm-10.17-14.25c-.41-.64-.78-1.3-1.1-1.98,2.77-.26,5.57-.26,8.34,0-2.82,1.2-6.13,2.82-7.91,5.4-2.4,3.37-4.7,4.21-8.8,3.56-.97-4.21,2.6-2.92,4.06-6.09,.84-.59,2.43-2.84,3.2-1.2-.66,1.13-1.47,2.15-2.15,3.27,1.67-.63,3.16-1.65,4.37-2.96Zm-7.75,15.69c.39-.37,1.01-.36,1.38,.03s.36,1.01-.03,1.38c-.18,.17-.41,.26-.65,.27-.95-.25-1.18-.82-.7-1.68Zm.6,7.34c-2.11,.42-2.28-2.52-2.42-3.98,2.75,.85,2.63,1.15,2.42,3.98Zm.9-11.57c-.84-.25-1.08-.77-.7-1.53,1.11-.67,2.27,1.33,.7,1.53Zm-4.74-17.67c.77-.38,1.28-.15,1.53,.71-.2,1.52-2.21,.39-1.53-.72v.02Zm7.31,3.28c-1.25-.15-.3-1.77,.2-2.24,1.93-.28,1.5,2.2-.2,2.22v.02Zm-9.26-7.52c.54-2.58,3.26-1.43,5.09-1.38,1.8,.21,5.98,.91,4.82,3.56-1.89,.41-4.13,1.29-6.03,.68-1.73-.56-4.15-.35-3.89-2.88v.02Zm-.56,6.91c.73-.96,1.99,.84,2.35,1.44-.75,1.09-1.58,2.52-2.84,1.05-1.21-1.19-.51-1.61,.5-2.49Zm.84,14.41c1.12-.49,1.56-.32,1.31,.5,.77,2.71-2.52,1.32-4.1,1.57,.87-.77,1.8-1.46,2.79-2.08v.02Zm-.78-7.78c1.04-.67,2.31,1.4,1.83,2.24-1.04,.66-2.33-1.41-1.83-2.26v.02Zm-2.18-5.5c-1.11,.57-2.1-1.2-1.34-2.05,1.38-.81,2.18,1.09,1.34,2.05Zm-1.4,12.74c-.6-.13-.98-.72-.85-1.32,.09-.43,.42-.76,.85-.85,1.16-.03,1.16,2.2,.03,2.17h-.03Zm-14.14-8.89c.84-.51,2.17,.29,2.77,.9,.04,1.48-3.43,.43-2.77-.9Zm4.79-4.35c-1.35-.09-.44-1.87,.19-2.31,1.25-.09,.88,2.22-.19,2.31Zm1.09,1.78c.55-.51,1.4-.51,1.94,0,.4,1.25-2.39,1.25-1.94,0Zm1.68-1.99c0-1.36-.21-2.72-.61-4.02,.88-1.38,2.73-1.07,3.79-2.43,1.44-1.61,1.68-2.02,3.98-1.76-.61,.96-1.34,1.86-1.94,2.84-.54,1.8-.66,3.63-1.51,5.35-1.23,.25-2.5,.25-3.73,.03h.02Zm-1.68,15.74c1.16,.65,2.15,.35,2.19,1.98-2.95,.63-6.02-.17-8.3-2.15,2.83-1.45,3.39-1.27,6.08,.17h.03Zm-7.78,1.24c1.46,.05,2.91,1.06,4.08,1.86-1.88,3.89-6.82,1.93-8.96,5.11,0,1.63,.84,3.28,1.19,4.89-2.66-.12-2.1-4.57-2.57-6.46,1.91-1.89,3.9-3.99,6.23-5.4h.03Zm-2.46,8.95c-.38-.78-.07-1.48,.91-2.1,2.67-.68,.29,2.68-.91,2.1Zm-5.84-.21c1.93-.26,1.5,2.21-.2,2.24-1.25-.15-.3-1.77,.2-2.24Zm-3.37-5.99c.73-.13,1.48-.16,2.22-.11-.33,1.45-.4,3.62-2.46,3.2-1.67,.61,.03-2.52,.26-3.09h-.03Zm-.5,10.06c.36,.78,.08,3.21,1.16,3.2,1.3-.84,2.38-2.08,3.64-3.01,1.38-.65,3.3,.46,4.74-.3,1.59-.68,2.03-3.24,3.42-4.21,5.48-3.37,11.33-4.64,17.54-5.8,1,.22,1.98,.55,2.91,.97,.14,1.86,.38,3.71,.72,5.54,.7,1.68,2.22,2.89,2.87,4.62,1.09,3.43,1.36,6.85,1.75,10.42,.4,3.2,1.41,6.3,1.86,9.49-.21,1.68-1.44,3.07-1.68,4.8l1.81-1.2c-.43,6.78-3.98,13.15-4.51,19.77-2.26,.84-.6-1.96-.8-3.14-.74,.53-1.39,1.16-1.94,1.89,.08,3.98-.3,8.6-2.33,12.11-2.04,2.6-5.89,3.73-8.32,5.99-1.31,1.3-2.72,1.74-4.43,2.3-.72,2.15-1.01,3.99-3.29,5.05-1.14,.57-2.74,.29-3.1,1.68l2.52-.21c-2.58,4.12-6.58,3.7-10.17,6.29-.59,1.92-.6,4.11-1.91,5.73-1.69,1.3-3.54,2.39-5.5,3.24-4.42,1.75-8.64,5.37-13.3,6.34,.19-1.4,.51-2.68,.59-4.07-.58-1.37-2.58-2.78-2.44-4.28,2.25-4.86,.46-11.4,.38-16.55,2.55-3.37,4.93-6.88,7.11-10.5,.62-2.52-1.57-2.27-3.08-3.37,1.39-4.01,3.42-7.36,4.03-11.63,.84-6.36,9.39-7.89,9.64-14.83,3.24-5.46,8.15-11.4,10.46-17.94-2.3,1.18-2.52,3.27-3.8,5.31-2.14,4.16-5.26,7.73-7.44,11.78-1.25,4.21-4.47,7.79-7.8,10.48-.27-2.64-.73-4.99-2.26-7.22-2.07-1.29-3.99,2.03-5.55,.57-2.67-.97,2.36-2.26,1.59-4.08-1.26-1.78-3.12-3.3-4.11-5.24-.11-1.39-.07-2.78,.12-4.16,1.32,1.25,2.04,2.72,3.15,4.21-.09-1.98-1.04-3.6-1.47-5.49,4.71-.55,7.22-4.02,11.51-5.57,2.65-1.25,4.89-2.38,5.1-5.66-1.85,.24-3.37,1.44-5.05,2.26,.75-2.58,3.27-4.59,5.68-5.57h-.03Zm-29.15,95.03c-.98,3.85,4.64,4.65,1.52,8.28-4.26-2.31-3.32-7.57-3.04-11.63,.5-1.78,.44-4.49,2.36-5.3,1.08,1.3,1.92,2.79,2.47,4.38-.96,1.54-2.5,2.68-3.32,4.27Zm1.08,2.22c-.64-.9-.43-2.14,.46-2.78,.1-.07,.2-.13,.3-.18,1.52,.08,.96,4.17-.77,2.96Zm-8.16-9.37c-1.46-.42-3.13,.37-2.9-1.92,1.87-.36,3.75-.7,5.63-.94,.15,1.57,.17,3.15,.07,4.73-.93-.61-1.82-1.28-2.79-1.87h0Zm1.07,3.48c-2.52,1.51-4.46,1.23-3.99-2.2,2.12-.46,2.95,.6,3.99,2.2Zm-4.14-11.45c-.84-.25-1.08-.77-.7-1.53,1.11-.67,2.27,1.33,.7,1.53h0Zm2.66,2.18c1.32-1.82,3.08-3.73,5.22-4.54,.98-.25,1.99-.33,3-.24-1.21,1.97-2.62,3.81-4.21,5.5-1.36-.15-2.69-.44-4.01-.72h0Zm8.53-.29c1.1-.57,1.09,4.14,0,3.57-.55-1.13-.55-2.44,0-3.57h0Zm3.75-3.11c.91-.67,2.37-3.05,3.37-1.37-.61,.68-1.29,1.3-1.88,2-.89,2-.79,5.18-2.79,6.37-.06-2.5-.9-5.19,1.3-7h0Zm.5,13.15c2.4-1.42,1.14,3.62,1.3,4.78-1.15-.5-3.15-4.28-1.3-4.78Zm.79,27.56c1.59-.5,1.68,.91,.45,1.55-1.59,.52-1.7-.89-.45-1.53v-.02Zm-.94-29.63c.09-1.08,.43-2.12,.99-3.05,.7-.17,1.42-.2,2.13-.08,.71,.75-2.37,3.69-3.12,3.15v-.02Zm1.03-4.04c.4-1.45,.29-3.87,1.64-4.74l.48-.37c.03,2.38,.95,4.54-2.12,5.13v-.02Zm2.1-43.82c-2.81-1.82-2.88-7.07-3.11-10.1,2.2,3.11,3.94,6.17,3.1,10.12v-.02Zm14.9-33.84c-4.26,.63-6.82,3.72-10.71,4.9-2.05-1.2-6.3-2.36-5.74-5.29,.84,.39,1.68,.84,2.57,1.2,4.86-1.12,8.37-4.76,13.22-5.59-.21,2.05-.87,3.07,.66,4.78Zm-18.86,6.93c-.08-1.08-.08-2.16,0-3.23,.76-.06,1.51-.08,2.28-.08-.35,1.33-1.15,2.49-2.26,3.31h-.03Zm.19-12.62c-.19-1.1-.39-2.21-.56-3.31-.33,.77-.66,1.55-.98,2.32-1.89-1.09-1.25-2.96-1.17-4.79,4.24-1.09,4.99,3.09,2.74,5.76l-.03,.02Zm-.22,17.79c2.14-.45,2.32,2.6,2.37,4.07-1.66-1.11-2.78-1.82-2.35-4.08l-.03,.02Zm2.71,8.9c-.37-1.01-.67-2.04-.91-3.09,1.99,0,3.11-.34,4.14,1.68-.61,.63-2.28,1.94-3.21,1.39l-.03,.02Zm2.44,.41c1.09-.55,2.84,.69,1.82,1.82-.99,.98-3.97-.77-1.79-1.83l-.03,.02Zm0,6.07c1.54-.84,2.33,3.62,.9,3.56-.73-.84-1.57-2.52-.88-3.58l-.03,.02Zm1.68-2.52c.84-.4,1.89,2.15,1.33,2.72-1.28,.46-2.06-1.89-1.34-2.73h0Zm4.28-2.65c1.02-.76,1.4-1.89,2.3-.2,1.88,3.75,1.83,8.68-2.33,10.83-.99-1.21-1.83-2.53-2.52-3.93,.75-1.46,1.94-2.41,2.97-3.63-.08-1.06-.32-2.07-.42-3.1v.03Zm3.06,9.91c0,2.22-1.22,4.45-1.94,6.56-.84-1.09-1.85-2.32-2.12-3.68,.68,0,1.37-.08,2.05-.14,.61-1.03,.99-2.06,1.99-2.77v.03Zm-5.58,.93c2.67-.72,.29,2.71-.91,2.1-.38-.8-.08-1.5,.9-2.12v.03Zm-.77,4.25c.55-.51,1.4-.51,1.94,0,.4,1.22-2.4,1.22-1.95-.03v.03Zm1.69,5.13c2.41-1.19,.23,3.54-.96,2.83-.49-.88,.38-2.24,.98-2.81l-.02-.02Zm-.45,6.65c.65-.2,1.3-.41,1.94-.64-1.09,1.74-2.42,4.37-4.21,5.39-2.08-1.67-.62-6.54,2.26-4.76Zm9.59-69.07c.8,.12,.98,.6,.51,1.41-1.48,.9-1.99-.93-.53-1.41h.02Zm2.61,1.94c1.28-1.2,0,2.7-.06,3.13-.17,2.8-3.56,1.16-5.05,.56,1.5-1.49,3.21-2.73,5.09-3.69h.02Zm-6.73,4.95c1.11-.84,2.92,.68,1.81,1.81-1.51,1.32-2.89-.38-1.86-1.8h.05Zm4.33,3.49c.65-.3,1.38-.4,2.1-.29,.56,3.07-5.45,3.52-7.47,3.95,1.36-1.6,3.5-2.61,5.33-3.66h.05Zm-11.22,8c1.02-1.86,2.69-2.76,4.47-3.76l.54-.28c-.18,2.17-3.26,3.48-5.06,4.04h.05Zm1.68-4.21c.08-1.47-.56-3.11,1.04-3.91l.56-.32c3.39,1.09-.27,3.08-1.62,4.22l.03,.02Zm1.89-7.96l.5-.35c.7,2.84-3.62,4.92-5.76,5.82,1.4-2.13,3.17-3.98,5.23-5.49l.03,.02Zm-4.21,9.21l1.31-.34c-.98,1.67-2.36,3.07-4.01,4.08-2.12-1.7,1.34-3.27,2.68-3.76v.02Zm-4.35-5.05c1.05-.54,1.88,.98,1.03,1.74-1.25,.89-1.72-1.02-1.04-1.79v.05Zm-3.17-3.03c-.39-.84,.99-1.89,1.63-2.21,2.92-.72-.45,3.16-1.64,2.16v.05Zm-.91-8.03c.4-.31,.98-.24,1.29,.16,.09,.12,.15,.25,.18,.4,1.62,2.05-1.76,4.81-3.28,5.89,.1-2.25-1.26-5.93,1.82-6.46Zm-1.79,37.12c.84-.4,1.89,2.15,1.33,2.72-1.27,.47-2.05-1.88-1.33-2.72Zm-2.74,8c-2.66-1.86-2.39-3.37-2.74-6.32-3.29,.89-3.26-3.3-2.08-5.28,4.62,2.6,4.6,6.88,4.81,11.6Zm-2.58-14.77c.96,.76,.84,1.68,.98,2.79-1.05-.31-2.08-.73-3.15-.97-1.11,.62-2.3,2.21-3.61,2.11-1.68,.13-2.37-1.19-3.32-2.3,3.07-.31,6.11-.85,9.1-1.63Zm-10.55-9.46c.76-.38,1.27-.14,1.52,.71-.2,1.54-2.21,.4-1.52-.71Zm7.47,4.21c1.31,.07,1.03,2.35-.18,2.43-1.45-.22-.95-2.04,.18-2.39v-.04Zm-3.37-.77c.84-.79,2.9-.37,1.87,1.02-.88,1.03-2.68,.46-1.84-.98l-.03-.04Zm-1.36-4.62c-.84,.6-3.61-.84-2.9-1.96,.8-.36,3.41,.98,2.92,2l-.03-.04Zm-2.87-17.14c.91-.5,2.9,1.85,2.17,2.69-.88,.55-2.87-1.81-2.15-2.65l-.03-.04Zm1.38,28.32c-1.88-1.28-2.79-3.59-2.29-5.81,2.64-.43,2.56,4.17,2.29,5.81Zm-1.87-30.15c-.2,1.07-.47,2.14-.79,3.18-.73-.89-1.39-1.84-1.98-2.83-2.17-1.73-4.28-2.23-4.41-5.49,2.63,.64,5.3,3.26,7.2,5.13h-.03Zm-4.65,19.4c.61-.26,1.25-.5,1.89-.71,.69-.19,1.39-.29,2.1-.32-.42,1.16-.99,2.27-1.68,3.3-.95-.54-1.74-1.32-2.28-2.27h-.03Zm.75,5c-.95-.25-1.18-.84-.7-1.68,.39-.37,1.01-.35,1.38,.04,.37,.39,.35,1.01-.04,1.38-.17,.16-.39,.25-.62,.27h-.03Zm-6.62-18.52c2.09-.49,3.55,3.3,4.08,4.86-1.4-1.01-4.32-2.94-4.06-4.89l-.03,.03Zm.16,15.99c.77-.38,1.28-.14,1.53,.71-.18,1.5-2.18,.36-1.51-.75l-.03,.04Zm3,5.61c-2.38,1.5-3.75,.27-4.05-2.26,1.64,0,3.18,.83,4.07,2.21l-.03,.05Zm-1.04,4.25c-.8,.63-2.44-.38-1.94-1.38,.82-.68,2.47,.33,1.96,1.33l-.03,.05Zm-4.01-3.24c-1.83-1-3.04-2.86-3.19-4.95,2.82,.03,3.68,2.42,3.22,4.9l-.03,.05Zm-4.58-2.95c.74-1.21,1.68,2.28,1.22,2.8-1.13,.24-2.3-.07-3.16-.84,.61-.66,1.27-1.3,1.94-1.96Zm-2.18,14.74c.31,.66-.16,3.37,.9,3.16,.29-4.09-.17-8.24,.24-12.31,5.05-1.26,6.57,2.15,9.86,4.97,1.61,2.77,2.35,7.28,5.05,9.16-.84-3.75-3.49-6.67-4.04-10.64,1.28-.21,2.58-.31,3.85-.56,.7-1.46,1.16-3.03,1.35-4.64,1.1,4.29,6.67,3.93,8.74,7.57,1.5,4.28,5.36,7.57,7.63,11.51-.13-3.68,.45-7.18-.42-10.83,.96,.84,1.34,1.2,1.41,2.52,.53,4.42,1.46,8.82,1.75,13.25l-1.69-1.17c.37,2.06,.64,4.59,1.97,6.27,2.01,1.73-.35,3.82,2.87,3.24,.93,5.12,2.07,10.1,2.35,15.36-.66,1.33-3,.8-4.28,1.11,1.06,1.1,1.03,2.84-.06,3.9-.1,.1-.2,.18-.32,.26-1.97-1.19-2.3-1.82-2.2-4.07-1.76-.36-3.55-.62-5.33-.84,2.39,2.31,5.34,3.65,6.46,7.03-3.31,.95-5.8,2.9-8.42,5.05-2.2-.56-3.59-2.08-5.93-1.68-2.74,.45-2.9-2.58-3.43-4.47-1.48-.17-3.55,1.02-4.52-.38-1.9-1.68-2.69-4.45-4.29-6.54,0,2.52,1.63,4.97,2.24,7.5-2.01,.66-5.01,1.02-6.63-.66-1.89-1.58-5.18-.74-7.51-.98-4.07,.07-6.9-3.09-10.66-4.39-4.21-1.37-9.3-3.16-13.81-2.52-3.18,.54-6.07-.15-9.17-.64-4.97-1.15-9.03,4.04-11.78,7.44,.61-3.92,.45-7.57,2.34-10.94,.11-1.91-.71-3.76-.56-5.71,2.08,.47,3.94,2.65,6.01,1,2.21-1.29,5.71-4.01,2.52-6.35-2.36-3.43-6.62,.56-8.42-1.63,.84-5.05,.68-10.42,.47-15.59h-.62c-.34,4.38,.15,8.88-.29,13.28-1.14-1.06-2.1-2.3-2.82-3.68-.84-5.24-1.68-10.28-1.09-15.61,.4-1.44,2-2.62,3.02-3.68,1.97-2.1,4.97-1.14,6.9-3.37,2.22-1.16,5.43-3.37,7.8-1.55,1.92,1.14,3.75,1.59,5.5-.11,2.38-2.4,5.05-1.2,8.01-1.15,2.14,0,4.28-.98,6.42-1.14,.98,.65,1.44,2,2.17,2.92,2.9,.33,5.83,.35,8.74,.05,1.57,1.75,1.89,5.7,1.68,8-.84-1.6-.72-3.21-2.26-4.21,.24,2.64,1.65,4.89,2.29,7.47Zm16.3,49.79c.84-.46,1.3-.29,1.41,.51-.47,1.46-2.31,.95-1.41-.51h0Zm.88-2.54c.78-.36,2.42,.3,1.97,1.31-1.48,.91-5.9,.22-1.94-1.31h-.03Zm-4.67-.35c-.36,.98-2.89,1.74-3.81,1.48-.6-1.28,1.93-1.68,2.7-1.96,.81-.17,1.19-.01,1.12,.48h0Zm-14.76-2.18c2.08-.06,5.75-.84,7.28,.84-.29,2.15-2.69,.84-4.08,.84-1.33-.45-3.72,.5-3.19-1.68h0Zm-1.79,5.84c-1.58-.54,.45-1.46,1.07-1.68,2.7-.37,.38,2.22-1.06,1.68h0Zm-1.16-5.29c-.84,.63-2.44-.38-1.94-1.38,.81-.63,2.45,.38,1.94,1.38h0Zm-3.62,3.03l1.33-.29c.08,1.94-4.21,3.22-5.82,3.23,1.04-1.63,2.75-2.29,4.49-2.94h0Zm-10.25,3.45c-.6-1.28,1.93-1.68,2.7-1.96,.79-.17,1.16-.01,1.11,.48-.35,.98-2.88,1.74-3.8,1.48h0Zm-12.14-12.36c-1.27,.67-2.58,1.26-3.92,1.78,1.3-2.46,4.79-4.21,7.49-4.1-.85,1.37-2.21,1.58-3.56,2.31h0Zm4.86-.38c1.37-.87,2.99-1.25,4.6-1.08-2.77,1.86-4.77,3.95-8.42,3.11,1.23-.77,2.51-1.45,3.83-2.04h0Zm-6.62,4.14c0,1.55-4.62,.66-2.11-.84,.8-.08,1.59,.23,2.11,.84Zm-2.37-3.8c-1.46,.9-1.97-.93-.51-1.41,.78,.16,.96,.6,.51,1.41Zm-.37,13.13c.73-.12,1.47-.19,2.21-.21-1.89,1.73-3.47,1.68-5.89,1.4,1.13-.63,2.38-1.03,3.66-1.19h.02Zm-5.89-13.47c-1.38,1.07-2.26,2.69-3.59,3.85,.52-4.7,4.29-5.89,8.32-6.61-.99,1.55-3.18,1.78-4.75,2.74h.02Zm2.47,0l1.34-.23c.84,2.95-2.52,4.28-4.87,4.02-.25-1.98,1.98-3.22,3.52-3.83l.02,.03Zm-2.48,5.73c.55-.51,1.4-.51,1.94,0,.39,1.21-2.41,1.21-1.96-.03l.02,.03Zm5.43,15.44c-.3,.84-.67,1.63-1,2.46-.61,1.2-.72,3.08-2,3.71-.84-1.99-1.89-4.26-1.84-6.46,1.66,.03,3.27,.21,4.85,.29Zm-3.03-3.21c-.84-1.92,1.93-1.27,3.01-1.76,1.98-.47,4.01-.61,6.03-.41-1.9,2.47-6.46,4.92-9.01,2.17h-.03Zm14.38-3.62l.58-.24c-1.28,3.66-4.67,6.17-8.54,6.31,1.83-2.63,5.17-4.65,8-6.07h-.03Zm-2.01-3.94c.92-.49,1.88-.9,2.87-1.22,1.01-.22,2.04-.29,3.07-.19-1.09,2.52-3.74,1.44-5.91,1.41h-.03Zm3.43-3.25c.63-1.03,1.6-1.8,2.75-2.17,1.21-.45,2.69-.21,3.96-.14-1.05,2.05-4.64,1.99-6.67,2.31h-.03Zm-26.23-21.79c.22-.94-1.16-3.37,.74-2.23,.58,2.65,.88,5.36,.88,8.07-2.11-1.14-1.22-3.82-1.62-5.84Zm.07,26.8c-1.34,.16-2.7,.16-4.04,0-.1-1.68,1.52-2.79,2.7-3.72s1.69,2.95,1.31,3.72h.03Zm2.02-34.07c1.09-.27,1.05,3.03-.06,2.84-1.41-.59-.73-2.05,.03-2.84h.03Zm5.95,5.05c1.25-.04,4.76-1.2,3.71,1.19-2.14,2.16-5.31,2.71-7.47,.25,.5-1.11,2.66-1.07,3.73-1.49l.03,.05Zm-3.69-1.35c.91-.47,1.85-.86,2.82-1.17,1.2-.38,2.87,.72,3.98,1.18-2.27,.29-4.56,.28-6.83-.03l.03,.03Zm15.41-36.58c1.21-.43,2.68-.19,3.94-.13-1.2,1.76-3.49,4.21-5.55,2.04-1.48-.54,1.14-1.6,1.61-1.9Zm9.87-7.73c-1.58-.54,.45-1.46,1.07-1.68,2.69-.38,.37,2.21-1.07,1.67h0Zm4.21,6.19l1.68,.11c-.32,1.29-1.5,1.5-2.52,2.05-.84-.38-1.14-1.56-1.55-2.31,.79,.02,1.58,.06,2.39,.14h0Zm10.36-5.28c.55-.51,1.4-.51,1.95,0,.4,1.24-2.39,1.24-1.95,0h0Zm2.79,3.92c-.84,.63-2.44-.38-1.94-1.38,.8-.64,2.44,.37,1.94,1.37h0Zm-2.78,1.25c.98-.57,1.53,.33,2.03,1.03-.93,.56-1.87,1.08-2.78,1.68-1.11,.59-2.35,2.08-3.64,1.97-.79-3.1,2.31-3.52,4.39-4.68Zm-4.21-3.5c.55-.51,1.4-.51,1.95,0,.4,1.26-2.4,1.26-1.96,.02v-.02Zm.25,2.56c.72,1.91-4.01,2.35-2.84,.08,.84-.6,1.96-.62,2.83-.07v-.02Zm8.58,2.87c-.84,.44-1.68-1.49-1.21-2.08,1.29-.62,1.94,1.22,1.21,2.08Zm-4.67-13.77c.84-.08,5.46-.84,3.25,.84-.72,.9-6.32,1.34-3.22-.84h-.03Zm-11.78-6.67c1.95,.34-1.94,3.15-2.61,2.74-.62-1.42,1.51-2.51,2.63-2.74h-.03Zm3.11,3.19c-.78,.42-1.57,.84-2.37,1.22,1.2,1.08,2.95,1.57,4.42,2.22,1.95-.56,3.37-1.29,5.55-.84-3.37,1.41-6.55,2.98-10.1,3.85,.44-.84,.95-1.56,1.42-2.34-2.43-.28-2.74,.74-4.21,2.28-.91-.19-1.73-.67-2.35-1.36,1.99-2.39,4.06-5.91,7.67-5.03h-.03Zm-7.01,16.05c.4,1.25-2.36,1.25-1.95,0,.55-.53,1.42-.53,1.98,0h-.03Zm-4.61-9.76c-.55-1.09,1.04-1.74,1.81-2.05,3.13-.35-.69,2.74-1.78,2.05h-.03Zm-2.52-6.26c1.68-.23,2.65-.2,4.01,.84-1.27,1.17-2,2.91-4,2.32-.12-1.05-.13-2.11-.03-3.16h0Zm-3.22,2.68c1.34-.64,2.37,.84,2.16,2.14-1.78,.11-3.11,.55-4.02-1.35,.59-.28,1.23-.55,1.86-.79Zm-15.14-1.68c.93-.65,3.1,0,2.87,1.24-1.22,1.51-3.96,1.49-4.75-.47,.6-.25,1.25-.51,1.88-.77Zm-1.84,9.98c1.09-.24,2.06,1.26,.66,1.68-1.41,.22-2.04-.95-.66-1.66v-.03Zm11.78-1.68c3.69-1.26,7.88-2.95,11.57-.79-2.12,2.84-8.42,2.47-11.69,3.49,.56,.95,3.06,.62,2.19,1.9-3.13,1.46-6.18,1.06-9.51,1.2l1.08,1.39c-2.65,1.11-5.4,1.94-8.22,2.47,3.96-4.9,9.31-6.65,14.58-9.65v-.02Zm-15.98-6.53c.77-.4,3.37,.94,2.9,1.96-.81,.61-3.59-.78-2.87-1.94l-.03-.02Zm-1.96-8.11c-1.46,.84-2.17-1.16-1.3-2.15,1.42-.88,2.14,1.16,1.3,2.15Zm-2.25,9.54c2.47-.29,2.31,.42,3.12,2.37-2.56-.19-3.58,1-3.12-2.37h0Zm2.79,5.29c-.76,.84-2.28,0-1.74-1.04,.8-.67,2.68-.2,1.74,1.04h0Zm-3.27-12.28c-1.51,.72-2.88-1.68-1.99-2.86,1.01-.6,2.38,2.1,1.99,2.86Zm-3.61-8.84l1.36-.13c0,1.51-1.58,3.79-3.06,4.21,.4-1.3,.56-3.36,1.7-4.08Zm-.56,8.81c-.61,.53-1.87,1.31-2.67,.84-.14-.73,.12-1.49,.69-1.97,.46-.32,2.19,.38,1.95,1.09l.03,.04Zm-1.62-7.35c-.74,2.24,.36,4.72-2.99,4.12,.2-1.33,.54-2.63,.99-3.9,.65-.13,1.31-.22,1.97-.26l.03,.04Zm1.79,59.06c-1.89,3.27-3.63,6.67-5.56,9.91-1.05-5.19,1.1-9.93,.26-15.01,.87-.49,1.83-.8,2.82-.92,.38,2.52-.98,4.21-1.52,6.57,1.37-.09,2.68-.37,4.01-.56Zm-5.63-10.28c.06-2.15-.99-4.13,1.81-4.7l.58-.21c.13,1.94-.77,3.81-2.37,4.92h-.02Zm1.29-34.18c4.42,1.63,2.76,6.05-.39,8.06-.17-1.95-.17-3.91-.35-5.89,.24-.91-1.16-3.37,.75-2.17h-.02Zm-.4-19.52c1.34,.08,.56,1.98-.35,2.19-1.32-.08-.55-1.98,.37-2.19h-.02Zm-5.05,3.3c.8,.12,.98,.6,.51,1.41-1.46,.9-1.97-.93-.51-1.41Zm3.55,2.89l.56-.24c-.58,2.52-2.68,3.47-5.01,3.98,.71-2.46,2.41-2.73,4.45-3.74Zm-7.79,105.52c-.43-1.91-.08-3.91,.96-5.57l1.26-.14c-.32,1.83,.93,6.15-2.22,5.71Zm1.58,4.29c-.81,1.63-2.25,2.86-3.98,3.42,.39-1.94,1.02-3.83,1.87-5.61,.41-1.69,1.87,1.74,2.11,2.2Zm1.96,1.23c1.05-1.46-.19,1.99-.16,2.24-.16,1.84-1.4,1.01-2.7,1.22,.74-1.31,1.71-2.48,2.86-3.46h0Zm.68-105.35c.69-.14,.99,.31,.91,1.37-.84,1.75-1.83-.53-.91-1.37Zm0,128.77c1.11-.67,2.25,1.33,.7,1.53-.89-.24-1.12-.76-.74-1.53h.04Zm.95-118.45c-.53-1.11-.53-2.4,0-3.51,1.98-.72,.93,3.66-.05,3.52h.05Zm-1.25-3.72c.28,2.73,.3,5.49,.06,8.22,0,.8-1.08,2.33-1.81,1.14-1.23-1.2-.21-3.88-.08-5.41,.56-1.3-.38-4.62,1.83-3.95Zm-3.94-12.5c1.11-.57,2.1,1.2,1.34,2.05-1.35,.84-2.1-1.06-1.34-2.05Zm-1.64,1.49c.8,.12,.98,.6,.51,1.41-1.46,.93-1.97-.9-.51-1.38v-.03Zm2.15,10.21c.72,3.37-.61,7.17-.9,10.6-.85,.29-1.79,.08-2.43-.54-2.14-1.82-4.08-3.86-5.81-6.08,.84-1.61,3.17-2.11,4.61-3.12,1.87-1.14,2.31-2.2,4.53-.82v-.03Zm-.61,12.62c-1.89,1.32-3.58,2.59-5.05-.05,1.68-.14,3.37-.12,5.05,.05Zm-7.32-19.43c.76-.38,1.27-.14,1.52,.71-.2,1.54-2.21,.4-1.52-.71h0Zm-.33,3.16c-1.74-.33-3.37-.93-5.12-1.31-.71-.45-4.51,0-2.52-1.31,2.24-1.39,7.68-1.14,7.64,2.63h0Zm-6.4-9.01c.55-.51,1.4-.51,1.95,0,.4,1.25-2.39,1.25-1.95,0Zm-3.43,3.48c.9-.64,2.14-.43,2.78,.46,.07,.1,.13,.2,.18,.3-.06,1.51-4.17,.92-2.96-.77Zm-3.37-.07c3.26-.77,2.06,.84,2.18,3.12-1.8-.34-4.81-1.11-2.17-3.13h0Zm-4.21-5.84c1.68-.24,2.47-.77,2.2,1.43,.42,1.96-5.24,.14-2.17-1.41l-.03-.03Zm-1.78,5.81c.39-.37,1.01-.36,1.38,.03,.37,.39,.36,1.01-.03,1.38-.18,.17-.41,.26-.65,.27-.93-.26-1.15-.82-.67-1.69h-.03Zm-1,3.96c-1.3-.56-2.52-.84-3.25-2.2,.58-.24,1.18-.47,1.78-.67,.87-.77,1.24,2.4,1.5,2.86h-.03Zm-1.96,2.53c-.84,.63-2.44-.38-1.94-1.38,.82-.67,2.47,.34,1.96,1.34l-.03,.04Zm-1.09-19.9c.55-.51,1.4-.51,1.94,0,.43,1.2-2.37,1.2-1.92-.04l-.03,.04Zm1.95-1.68c.34,1.25-2.52,.77-3.18,.78,.81-1,2.07-1.62,3.21-.81l-.03,.03Zm-4.21,15.15c.4,1.25-2.36,1.25-1.94,0,.54-.53,1.4-.55,1.96-.04l-.02,.04Zm-2.16,26.53c-1.07-.45-2.1-.98-3.18-1.42,1.62,2.52,1.6,4.57,1.3,7.57-1.31-1.97-2.71-3.9-4.02-5.89,.27-.81,.63-1.58,1.07-2.31,1.09-2.38,4.7,.18,4.86,2l-.02,.04Zm-3.16-4.65c.55-.51,1.4-.51,1.95,0,.42,1.2-2.37,1.2-1.94-.04l-.02,.04Zm-.84,12.68c2.14,.29,1.07,2.47,1.25,4.01-.34-.7-.67-1.4-1-2.1-1.37,.99-1.42,1.78-2.9,.21-.33-2.41-.33-4.85,0-7.26,2.38-.59,2.07,3.67,2.71,5.11l-.06,.04Zm-.84,9.65c.6,1.3,1.44,2.45,2.08,3.72-.19,1.38-.53,2.74-1.01,4.05-3.22-2.66-1.92-9.4-2.98-13.31,3.82-.07,1.86,3.27,1.99,5.5l-.08,.04Zm1.46,9.59c3.15-.4,2.95,4.6,2.68,6.61-.08,2.42,1.23,4.37,1.35,6.73-1.98-.98-1.83-3.16-2.41-5.05-.37-3.1-2.19-5.12-1.55-8.33l-.08,.04Zm.54,13.08c-1.13,.31-1.01-2.26-.47-2.74,1.2-.35,1.09,2.21,.58,2.7l-.11,.04Zm2.81,2.19h.63c.2,2.11,.2,4.24,0,6.35-1.36,.15-.47-5.24-.56-6.39l-.08,.04Zm0-62.19c.69-.14,.99,.31,.91,1.37-.72,1.68-1.72-.6-.79-1.44l-.12,.07Zm.35,8.86c-1.26,.62-1.91-1.22-1.21-2.08,.97-.48,1.81,1.45,1.33,2.04l-.12,.04Zm-2.66-4.44c-1.91,.72-1.3-1.68-.13-2.1,2.16-.5,1.83,1.62,.25,2.05l-.12,.04Zm-2.52-17.19c.55-.59,1.47-.62,2.06-.07,.59,.55,.62,1.47,.07,2.06h0c-.72,.61-2.61-1.31-2.02-2.04l-.11,.04Zm-.09,10.94c3.94-.89,1.83,2.45,.96,4.3-.27,.72-.54,1.43-.79,2.15-1.95-1.02-.05-4.69-.06-6.48l-.11,.03Zm.49,11.51c-2.22,.72-1.75-3.51-2.28-4.89,2.33,1.48,2.77,2.08,2.39,4.86l-.11,.03Zm-4.16-11.62c-1.45-.4-.76-2.02,.26-2.52,2.52-.56,1.67,2.58-.15,2.5l-.11,.03Zm-1.48-2.68c-1.42-2.07-2.55-4.31-3.37-6.68,2.13,1.04,3.8,3.7,4.73,5.84-.4,.29-.82,.57-1.25,.82l-.11,.03Zm.86-7.96c.91-.5,2.9,1.85,2.17,2.69-.8,.48-2.79-1.88-2.06-2.72l-.11,.03Zm-1.9-3.47c.14,1.02,.17,2.05,.11,3.07-1.51-1.02-2.9-2.05-3.37-3.93,1.1,.23,2.19,.52,3.26,.86Zm-2.76,7.83c1.01,2.68,2.3,4.92,2.02,7.89-2.79-2.84-3.02-6.25-4.5-9.75-.84-1.72-1.54-3.51-2.08-5.34,2.2,1.65,3.54,4.66,4.52,7.2h.04Zm-3-14.04c-1.69-1.01-3.11-2.42-4.12-4.12,2.12,.33,3.78,2,4.12,4.12Zm-.92,5.05c-3.29,1.01-3.37-3.65-4-5.77,1.42,1.47,3.82,3.64,4,5.73v.03Zm-8.42-7.5c-2.06-.19-3.05-1.73-4.07-3.32,2.1,.2,3.08,1.7,4.11,3.28l-.03,.03Zm-6.98-3.04c2.79,2.23,4.99,5.11,7.76,7.38,2.08,1.34,2.15,3.55,2.61,5.78,.45,1.36-2.33,2.09-2.1,3.37,.62,3.43-.84,6.52-1.83,9.81-2.44,1.49-5.37,2.09-7.78,3.73-1.68,.92-2.87,2.87-5.05,2.37,.42-3.86,2.02-3.86,5.35-4.54,1.41-3.2,5.05-6.21,5.5-9.59-.75-1.89-4.07-2.95-5.56-4.43,.29-1.84,.77-3.64,1.44-5.38,.73,.51,1.52,.92,2.36,1.24,.18-.71,.09-1.46-.24-2.11-1.9-2.42-4.27-4.69-5.36-7.76,1-1.5,1.79-.38,2.95,.12l-.03,.03Zm4.89,67.24c.32,1.62,.84,3.2,1.19,4.83-2.27-1.86-3.37-6.29-2.29-9.06,.96,.93,1.92,1.87,2.83,2.84-.53,.42-1.13,.88-1.69,1.36l-.03,.03Zm2.84,2.86c-.99,.5-2-1.14-1.36-1.94,1.03-.54,2.04,1.1,1.41,1.9l-.04,.03Zm-3.37-13.47c-1.02,.49-2.37-2.12-1.96-2.9,1.16-.79,2.55,2,1.95,2.84v.06Zm-1.98,4.92c-1.24,.94-1.68-.94-1.03-1.74,1.04-.6,1.87,.93,1.02,1.68v.06Zm-.67-10.67c-1.1,.52-4.21-1.06-1.99-2.2,1.17-.66,2.35,1.16,1.98,2.14v.06Zm-4.4-3.88c.55-.51,1.4-.51,1.94,0,.4,1.19-2.4,1.19-1.95-.06v.06Zm6.43-16.05c-1.68,2-3.89,3.77-6.73,3.16,1.09-1.57,2.77-2.24,4.49-2.93,.73-.2,1.48-.3,2.23-.29v.06Zm-19.25-10.17c1.36,.39,2.58,1.06,3.91,1.54-.07-2.2-1.55-3.88,1.06-5.11,1.68,1.42,2.05,4.52,2.3,6.6-.94,.78-1.99,1.42-2.95,2.17,.56,.66,1.16,1.28,1.82,1.84-1.13,2.99-1.25,5.68-1.32,8.85-2.41-1.55-3.2-4.02-3.8-6.67,.44-1.11,1.26-2.16,1.43-3.37-.74-2-2.79-3.7-2.45-5.85h0Zm1.64-11.78c1.33-.1,2.67-.1,4,0-.24,1.83-.57,3.69-.98,5.5-1.31,.35-2.63,.63-3.97,.84,.41-1.83,2.14-2.63,3.37-3.9-.79-.8-1.65-1.56-2.42-2.41v-.03Zm9.02,2.13c-1.22,.75-2.44,1.74-3.87,1.92-.18-1.85-.49-3.43,.84-4.95,1.26,.74,2.3,1.79,3.02,3.06v-.03Zm-4.73,23.96c2.39-.65,3.72,3.99,.76,3.22-1.44,.56-.63-2.47-.76-3.22Zm1.73-1.94c-.6-.13-.98-.72-.85-1.32,.09-.43,.42-.76,.85-.85,1.13-.03,1.13,2.2,0,2.17Zm.14-13.71c-2.46-2.59,1.09-5.89,3.79-5.39-.57,2.37-1.07,5.61-2.84,7.35-.31-.65-.62-1.28-.94-1.96Zm8.42-.06l1.33-.31c-1.98,2.53-4.6,4.49-7.57,5.7,.99-2,4.15-4.59,6.24-5.39h0Zm-1.84-2.74c.39-.37,1.01-.36,1.38,.03,.37,.39,.36,1.01-.03,1.38-.18,.17-.41,.26-.65,.27-.96-.25-1.19-.82-.71-1.68h0Zm-1.49-6.56c-1.08,1.23-2.36-1.77-1.83-2.52,1.34-.34,3.17,1.22,1.83,2.52h0Zm-.38-4.39c-1.9,.28-2.21-1.68-.66-2.47,1.43-.24,2.29,2.03,.66,2.47h0Zm-.96-12.92c-1.25,2.43-2.93-2.15-3.21-3.12,1.24,.76,2.64,1.74,3.21,3.12ZM43.27,3.49c1-1.46,.36,2.58,.47,2.94-.86-.05-1.68-.38-2.34-.93,.46-.8,1.1-1.49,1.87-2Zm-1.68,24.62c-.84-2.89-1.25-4.6,.28-7.34,.19,1.4,.3,2.8,.47,4.21-.18,1.12,1.57,4.12-.72,3.13h-.03Zm-1.76-14.64c2.34-.05,2.23,6.42-.84,5.6-.1-1.67-.74-4.57,.84-5.6Zm-3.42-3.45c1.31,.62,2.59,.46,2.35,2.35,.57,1.43-2.47,.66-3.21,.76-.29-1.13,.04-2.32,.86-3.15v.04Zm-8.3,13.47c2.67-.72,.29,2.71-.91,2.1-.38-.83-.07-1.55,.91-2.17v.08Zm-3.29,2.79l1.33-.32c-1.21,1.89-1.68,2.64-4.13,2.41,.56-1.1,1.59-1.9,2.8-2.16v.08Zm-2.52,20.61c-.49-1.61-.91-3.23-1.35-4.85-.37-1.85-1.62-4.01-1.31-5.89,.96-1.79,2.09-3.48,3.37-5.05,3.43,2.86,2.44,6.15,1.68,9.99-.53,1.84-.66,4.57-2.4,5.72v.08Zm-1.67,7.57c-.59-1.92-1.27-3.65-1.02-5.71,1.05-.11,2.11-.11,3.16,0,.43,2.14-.42,4.34-2.18,5.63l.03,.08Zm-1.84-24.27c.39-.37,1.01-.36,1.38,.03,.37,.39,.36,1.01-.03,1.38-.18,.17-.41,.26-.65,.27-.95-.25-1.18-.82-.7-1.68Zm-1.14,3.37c-.96,2.26-2.31,5.58-4.61,6.73,.34-1.09,.77-2.15,1.06-3.26-.61-.5-1.25-.98-1.89-1.46,.92-1.66,3.85-4.05,5.45-2.05v.03ZM3.57,61.96c.32-1.46,.5-3.71,1.83-4.61l.45-.38c.06,2.19,.96,5.05-2.28,4.99Zm3.5-15.66c1.25-.09,.88,2.22-.19,2.31-1.35-.08-.44-1.86,.19-2.31Zm5.56,17.26c-2.58,.84-1.24-2.61-1.46-4.06,1.91,1.04,1.61,2.15,1.46,4.07h0Zm1.12-6.43c1.34,.08,.56,1.98-.35,2.19-1.34-.08-.56-1.97,.35-2.18h0Zm2.98,18.02c-1.09,.5-2.66-2.77-2.1-3.55,1.09-.5,2.66,2.77,2.1,3.55Zm1.92,1.24c1.01,.6,1.9,1.38,2.62,2.31,2.52,3.63,5.98,6.35,8.61,9.93,1.61,1.62,3.37,1.68,3,4.46-2.72-1.89-4.89-4.61-7.31-6.88-3.12-2.62-5.5-6.01-6.91-9.83Zm6.56,17.43c1.76-1.58,3.31,.63,4.97,1.25,1.87,1.36,3.85-1.13,5.39,.57,1.78,1.9,5.89,1.68,5.73,5.05-1.79-.14-3.37-1.43-4.92-2.26,.84,3.09,2.12,5.66,1.57,8.99-.43,1.84-2.27,2.99-4.12,2.55-.6-.14-1.15-.44-1.6-.87,.9-1.62,2.87-2.87,2.38-4.88-.11-.98-1.31-1.62-1.99-2.26-2.37-1.68-3.76-4.07-5.83-5.99-2.42-1.22-5.13,2.08-7.31,2.97,.24-2.44,3.97-3.75,5.72-5.13Zm4.51,8.61c2.03-.24,4.12,1.07,4,3.24-2.82,.58-3.16-1.14-4.03-3.24h.03Zm-2.43,6.98c.74-.12,1.49-.17,2.24-.16-.9,1.6-2.42,2.75-4.21,3.16,.19-1.24,.91-2.34,1.97-3Zm-1.27-10.59c-1.14,1.02-4.52,.29-2.12-1.32,.95-.56,2.92-.14,2.09,1.29l.03,.03Zm-15.12,41.3c-1.46,.9-1.97-.93-.51-1.41,.78,.16,.96,.6,.51,1.41Zm4.03,5.95c-1.26,.62-1.91-1.22-1.21-2.08,.83-.44,1.67,1.49,1.2,2.08h.02Zm9.56,22.11c-.84-.25-1.08-.77-.7-1.53,1.09-.67,2.26,1.33,.68,1.53h.02Zm2.74,15.06c-.17-1.7-.17-3.4,0-5.1,1.78,2.41,1.78,2.69-.02,5.1h.02Zm7.24-4.14c.46,3.86-1.41,8.77-3.96,11.67-.12-2.26,.06-4.52,.53-6.73,.53-2.62-.45-5.61,3.43-4.94Zm-4.28-6.56c.98,1.91,1.89,3.19-.31,4.69-.55-2.47-1.23-4.92-1.68-7.4,1.42-1.63,3.11-1.09,4.01,.71-.64,.74-1.35,1.36-2.02,2Zm2.9-1.25c.24-.72,.52-1.42,.84-2.1,2.63,.51,5.15,1.48,7.44,2.85-2.39,.1-6.38,1.02-8.28-.72v-.03Zm24.1,16.12c-3.59-1.91-1.49-4.17-1.28-7.36l1.29-.07c.25,2.47,.24,4.96,0,7.42Zm11.4-21.71c3.66-.41-2.47,3.78-2.58,1.76,.44-.93,1.69-1.4,2.58-1.76Zm-.28-5.31c1.73-1.25,3.77-2.23,5.36-3.6,.23-.84,.08-2.13,.73-2.79,2.19-2.52,4.81-4.97,7.96-6.18-1.1,3.27-3.18,6.12-5.96,8.17-2.57,1.77-4.6,5.28-8.1,4.39Zm-11.74,9.26c-.25-1.81,2.93-2.4,4.09-3.37,1.79-1.16,3.79-1.96,5.89-2.37-2.05,2.97-6.05,6.85-9.98,5.72h0Zm5.1,9.36c-.2,1.54-2.21,.4-1.52-.71,.76-.39,1.25-.15,1.52,.7h0Zm-3.27,1.14c1.11-.84,2.92,.68,1.8,1.81-1.46,1.31-2.83-.39-1.8-1.81Zm13.85,11.28c-2.87,1.13-6,1.44-9.03,.89,1.72-.84,3.52-1.51,5.36-2.02,1.2-.13,4.76-1.2,3.67,1.12h0Zm-1.26-3.78c.84-.46,1.3-.29,1.41,.51-.48,1.45-2.31,.94-1.41-.52h0Zm2.49,2.29c-.44-2.07,1.94-1.36,3.22-2.15-1.11-.22-2.23-.44-3.37-.64,2.08-.61,3.86-2.52,5.14,.34-1.06,1.71-3,2.66-5,2.44h0Zm14.32-9.55c-.54-1.07,1.05-1.74,1.82-2.05,3.53,.16-.34,2.68-1.82,2.05h0Zm8.12,4.34c2.58-1.85,5.74-.5,7.64,1.63-3.37,.94-7.28,2.46-10.77,1.84-.5-2.73,1.31-2.46,3.13-3.48Zm-1.45-19.75c-.93,1.23,.61,1.68,.27,2.91-.97,2.91-2.1,5.76-3.37,8.55-.51-1.4-1.11-2.76-1.8-4.07-.2,1.36-.34,2.73-.57,4.08-1.73,.84-3.16-2.91-3.14,.09,.17,2.45-2.92,2.64-4.48,3.94-3.68,2.78-7.74,2.79-12.09,1.99,.38,.79,.79,1.57,1.16,2.37-3.81,.91-7.57,2.91-11.4,3.41-.41-2.22,1-3.53,2.17-5.2,1.14-1.64,2.14-3.38,2.97-5.19,.74,.38,1.46,.84,2.21,1.19-.67-1.45-1.54-2.78-2.3-4.21,2.52-1.78,4.91-5.89,8.15-5.89-1.76,2.3-3.72,4-4.79,6.73,4.35-.06,9.05-1.91,13.27-2.77-.68-.54-2.68-.43-1.68-1.58,1.58-2.28,.24-4.01,.11-6.45,.84-1.68,4.41-1.83,4.13-4.08-1.07,.1-2.12,.29-3.18,.39,.12-1.62,.45-3.21,.55-4.82-1.99,2.34-1.48,6.03-3.37,8.21-1.72,.97-3.51,1.82-5.36,2.52-.62-2.23-.29-2.85-2.74-3.65,1.07-1.05,2.25-.4,3.47-.98,1.44-1.75,2.07-3.82,4.02-5.2,3.44-2.33,5.89-5.09,6.68-9.26-.34-2.46-3.95-.99-5.65-1.16-1.61,2.07-2.26,4.55-4.21,6.41-3.96,5.54-11.16,8.87-17.35,11.3-2.74,1.27-5.79,1.48-7.25,4.42,2.13-.48,3.74-1.78,5.77-2.47-.85,1.1-1.81,2.1-2.87,3,.98,.9,2.06,1.14,2.02,2.69-2.16,.21-4.33,.24-6.5,.1,.76-.84,1.56-1.56,2.28-2.38-1.4,.38-2.74,.95-4.14,1.31-3.48-.76-6.91-1.71-10.28-2.85-3.82-1.3-6.95-3.85-8.23-7.76-.42-1.62-2.86-1.68-3.78-2.92-4.15-5.39-6.35-12.36-9.26-18.52-1.89-3.8-.84-7.32-1.31-11.33-.91-.94-1.76-1.95-2.52-3.01,1.3-.1,2.34,.52,3.23-.72,.48-2.64-.29-4.94,1.23-7.2,1.09-1.68,.94-3.71,2.08-5.4,1.36-3.14,4.47-4.39,7.17-6.4,1.4-.53,2.61,1.04,2.37,2.37-.46,2.19-2.16,3.31-1.58,5.81,2.18,.46,3.94-1.5,5.89-2.26,2.23-.33,4.85,.13,6.91-.78,1.2-.24,2-1.41,2.89,0,1.39,1.29,0,3.18,1.68,4.21,1.88,1.22,4.17,1.73,6.11,2.88-1.4,.2-2.8,.35-4.21,.56,1.31,1.79,3.37,1.24,5.36,1.94,2.22,.37,3.66,1.89,4.83,3.69-1.01,1.75-3.5,3.15-5.41,1.91-2.16-.98-5.8-2.22-7.3,.4,2.19-.08,4.42-1.64,5.82,.77-1.81,.35-3.75,1.09-5.61,.96-.81-1.17-1.55-2.4-2.21-3.67-2.52,.6-5.31,1.34-7.49,2.79-1.23,1.25-.66,2.44,.95,2.85,3.17,.84,3.63,4.46,6.73,4.94-.84-2.03-2.22-3.75-3.07-5.77,.8-.88,1.81-1.54,2.94-1.91-.38,.84-.84,1.68-1.2,2.52,2.74,2.2,7.7,.26,9.98,2.52-2.1,3.2-5.22,5.05-7.83,7.57,1.02,1.68,2.99,1.55,4.21,2.99-2.38,1.17-4.7,3.27-7.35,3.69,.39-2.22,3-3.96,.35-5.69-.77,3.37-2.3,3.37-5.26,3.97-.62-2.07,.84-5.99-2.09-6.28-2.52-.56-2.31,5.2-4.65,1.91-1.06-2.88,3.43-5.89,4.81-8.05-2.29-1.14-4.48-.96-6.06-3.27-1.07-.99-.66-1.78,.53-2.31,3.94-.89,6.37-3.74,9.67-6.02,1.42,.68,2.32,1.83,3.43,2.9,2.26-2.4-.84-2.93-2.47-4.08-1.86-.76-1.46-2.33-2.04-3.96-2.53-.15-5.06-.09-7.57,.19-.75,1.5-1.69,2.9-2.8,4.15-2.46,2.38-1.17,5.61-4.1,7.73-1.43,2.14,1.26,2.63,2.66,3.37-.11,2.28-1.16,5.4,.07,7.46,1.51,2.7,3.05,5.27,5.89,6.73,3.87,2.59,10.17,4.21,14.11,.84,1.99-1.6,5.05-2.52,6.49-4.57-.57-2.07-3.61-1.09-5.19-1.3,2.05-3.85,7.05-6.65,8.42-11.33,.45-3.27,3.87-2.08,5.14-5.05-2.74-2.99-5.27-7.05-9.04-8.59-1.94-.84-3.86-.22-5.31-1.94,1.38-.16,2.52,.64,3.24-.98-1.16-1.11-4.34-1.68-4.12-3.59,0-1.84-.63-5.2,2.25-4.92,.38,3.97,1.09,7.03,5.39,8.14-1.37-2.52-4.06-3.1-4.21-6.51,2.23,0,3.66,3.37,5.26,4.7,1.46,1.68,2.89,2.63,2.9,5.05,2.46,2.29,5.79,3.6,8.42,5.57,.92,5.24-.46,9.84-1.28,14.93,2.79-3.76,4.6-8.11,9-10.88,2.14,1.25,4.33,2.42,6.46,3.68,1.25,3.06,1.91,6.39,3.19,9.47,2.22,.84,3.65-.21,5.53-1.18-.19,.78-.41,1.56-.66,2.33,2.19-1.25,5.61-3.05,5.74-5.89-1.51-3.62-5.31-2.97-7.36-6.36,.84-.39,1.68-.84,2.47-1.28-1.73-2.47-4.06-3.59-6.31-5.61-6.29-5.32-13.71-10.05-19.11-16.24-5.51-4.59-11.11-10.39-17.67-13.37,.17,2.52,3.37,2.34,3.31,4.84-1.72-.18-3.37-.81-4.76-1.83-3.5-2.68-6.99-4.34-9.49-8.17-1.16-1.62-1.68-3.75-3.16-5.05,0,1.16,.13,2.31,.2,3.48-4.44-4.55-9.54-9.41-12.2-15.27-1.18-1.89,.73-2.52,1.57-4.05-.98,.17-1.95,.39-2.93,.55,.13-3.84,2.77-7.04,2.08-10.73-3.11-.75-5.47,4.33-8.09,5.68-.61-1.49-1.47-3.06-.84-4.69,1.68-1.98,4.21-2.45,4.93-5.05-1.12,.44-2.2,.95-3.32,1.36,3.85-4.33,5.45-10.34,9.64-14.18,.51,2.35,1.26,4.63,1.88,6.95-2.61-.24-5.89,3.04-6.67,5.37,1.6-.77,3.21-2,4.95-2.27,.27,2.41,0,4.91,.41,7.29,.5,.55,1.76,2.52,2.52,1.33,2.52-2.22,2.1-4.7,2.52-7.7,1.31-3.92,2.31-7.92,3-11.99,.71-2.28-2.52-4.05-1.2-6.3,1.31-1.68,3.15-3.06,4.41-4.8,.4-1.86,.48-3.7,1.26-5.46,.78-1.76-.45-3.15,1.36-4.6,1.43-2.31,3.27-.17,5.05,.54,.64,1.94,0,4.44-.22,6.46,.37,1.62,1.06,3.15,1.39,4.78l-1.87-1.17c.01,1.04,.35,2.04,.97,2.88,.72-.33,1.42-.71,2.14-1.04,.84,1.77,1.39,4.45,3.49,1.9,.6-4.11,.32-8.3-.84-12.29-1.41-2.52,1.4-6.32,3.45-7.57,1.58,1.26,3.59,1.51,3.5,3.91-1.42-.72-2.77-1.56-4.21-2.18,.7,3.85,2.61,7.57,3.69,11.33,2.64,1.42-.49-3.68,1.82-1.83,2.37,4.04,4,8.25,6.95,11.96-1.55,.39-3.11,.68-4.7,.88-.67-.98-1.2-2.07-1.83-3.12,.08,1.58,.39,3.14,.47,4.72-1.23,1.19-2.64,1.78-3.37,3.37-1.85,2.75,.17,4.83-2.6,7.29,1.57,3.53,.84,4.65-.13,8.16,1.25,6.41,1.75,15.01,8.18,18.52,2.52,.3,7.26-4.62,9.93-2.39-2.13,3.42-4.82,5.05-8.92,4.6l-.35,1.23c1.14-.16,3.48-.28,3.27,1.47-1.19,2.05-2.52-.48-3.27-1.47-8.85-7.73-15.99-17.22-20.97-27.87-1.16-2.21-1.78-4.74-3.22-6.73-.1,2.31,.84,4.41,1.82,6.46,5.53,12.35,14.31,23.04,24.41,31.88,.78,.93,1.9-1.68,2.96-1.11,.26,1.25-1.6,2.64-2.18,3.74,3.78,.17,3.81,1.95,4.31,5.15-.09,2.22,1.9,3.13,2.14,5.24,.65,4.35,2.21,8.51,4.6,12.21,.89,0,1.78-.08,2.68,0,.75,1.37,1.64,2.65,2.68,3.81,.2-1.92,.22-3.84,.36-5.76,1.09,.72,2.1,1.55,3.22,2.25,.14-2.63-2.6-4.79-3.57-7.19-1.99-5.66-5.19-10.71-7.25-16.36-.67-1.95,1.31-2.52,2.32-3.89-1.37-.18-2.75-.3-4.12-.5,2.35-1.36,4.97-2,7.32-3.37,.25-.94,.31-1.92,.16-2.88-1.05,.12-2.09,.33-3.13,.47,1.02-3.12,3.54-5.2,4.78-8.13-.84-1.41-2.19-1.9-.84-3.63,2.29-2.84,1.68-5.63,2.1-8.99,.41-1.98,.41-4.03,0-6.01,1.68,1.34,1.46,3.22,2.08,5.18,.55,3.19,2.41,5.82,2.98,9,.98,3.42,2.5,6.66,4.49,9.6,1.46,2.35,1.05,5.05,1.43,7.86,.45,2.12-1.83,3.37-2.87,4.91,1.94,.26,3.91,.26,5.85,0-.43,1.81-1.38,3.61-1.48,5.46,.41,3.17,1.61,5.84-.28,8.82,1.09,3.27,2.41,7.26,3.62,10.45,1.36,3.25,.29,7.23,1.05,10.74,.98,5.29,2.55,10.45,4.67,15.39-2.02-.4-3.88-1.53-5.89-2.28,.99,4.12,2.75,5.61,6.31,7.62-1.39,1.64-2.4,3.58-2.96,5.66-.72,2.76-2.45,5.59-2.38,8.42,2.94-3.05,2.43-8.46,5.65-10.94,.9,5.5-3.06,11.43-4.21,16.79-.99,3.09-1.42,6.29-2.17,9.43-.38,1.33,.41,1.64,1.27,2.38,.15-3.11,.16-5.55,1.88-8.28,1.33-2.33,1.58-7.57,3.95-8.6-1.35,4.43-1.37,8.8-3.78,12.9l-.04,.02Zm-19.98,3.42c.73-.56,1.83,.4,2.63,.58,.65,.17,1.3,.3,1.96,.39-2,2.66-5.59,4.97-9.02,4.58,1.39-1.86,2.89-3.76,4.43-5.55Zm-39.81-40.51c-1.6-.56,.2-1.59,1.02-1.68,1.53,.44,.08,2.01-1.02,1.68h0Zm-4.96,14.76c-.8-.34-1.18-1.27-.84-2.08,.16-.38,.46-.68,.84-.84,2.03-.23,1.39,2.79,0,2.91Zm-6.65-9.68c1.01-.2,2.06-.23,3.08-.08-.17,2.02-1.33,3.83-3.1,4.84-.63-1.73-1.96-3.35,.02-4.76Zm-2.48-5.13c.77-.38,1.28-.14,1.53,.71-.2,1.54-2.21,.4-1.53-.71Zm5.05-8.12l.51-.35c.35,1.98-1.04,4.27-3.18,4.04-.4-1.52,1.62-2.9,2.67-3.69Zm20.02-23.94c3.16-.13,4.75,2.02,6.89,3.91,.72,.66,1.44,1.3,2.13,1.98-3.15-.5-8.28-2.27-9-5.88h-.03Zm10.52,12.45c-1.09,.69-2.73-.95-2.04-2.04,.72-.52,2.56,1.31,2.04,2.04Zm-3.19-3.55c-.84,.48-2.91-.79-2.24-1.83,.85-.48,2.92,.76,2.24,1.83Zm11.32,16.1c-1.42-1.33-2.58-2.91-3.42-4.67,.54-.57,1.13-1.08,1.77-1.52,2.27-.54,5.5,2.52,6.37,4.64-1.28,.71-3.24,1.8-4.71,1.56h0Zm7.77,.72c.35,.95,.72,1.9,1.02,2.85-2.26-.62-4.31-.84-5.52-3.07,2.04-.56,4-3.27,4.51,.22h0Zm-5.42,2.85c-.83,1.15-1.73,2.24-2.68,3.28-.48,.57-.98,1.14-1.48,1.68-.2-2.45-.18-4.92,.07-7.36,2.13-.46,3.11,.78,4.11,2.4h0Zm-9.17-15.43c.14-.45,.29-.9,.45-1.35,1.92,1.72,3.18,4.06,3.55,6.61-2.74,.73-5.55-2.8-4-5.26Zm22.44,18.69c-2.61,.61-2.78-1.09-3.13-3.13,.78-.5,3.83,2.38,3.13,3.13Zm3.86,4.04c1.45,2.09-1.3,2.9-2.76,3.55-.9-1.47-1.47-3.11-1.68-4.82,1.51,.03,4-.82,4.44,1.27Zm11.99,2.67c-.84,.63-2.44-.38-1.94-1.38,.8-.63,2.44,.38,1.94,1.38h0Zm8.22-5.35c-.32-.72-.64-1.43-.93-2.15,3.03,.77,3.37,3.24,3.86,5.89-1.97,.24-2.09-2.44-2.93-3.75h0Zm4.4-4.75c-.84,.63-2.44-.38-1.94-1.38,.8-.63,2.44,.38,1.94,1.38h0Zm.6,2.87c.84-.51,2.17,.29,2.77,.9,.04,1.48-3.43,.43-2.77-.9h0Zm-.29-11.9c1.68,1.09,3.96,2.75,4.21,4.9-1.71-1.09-4-2.75-4.21-4.9h0Zm4.87,1.25c-.37,.45-3.32-1.54-2.84-2.01,1.23-.82,3.53,.5,2.84,2.01h0Zm.35,4.8c.84-.76,2.62,.23,2.05,1.34-.97,.77-2.86,0-2.05-1.3v-.03Zm1.46,20.93c-.84-.25-1.08-.77-.7-1.53,1.11-.67,2.27,1.33,.7,1.53h0Zm.24-24.21c1.02-.49,2.37,2.12,1.96,2.9-1.16,.72-2.56-2.06-1.96-2.9h0Zm7.22,9.82c-1.89-2.98-3.5-6.13-4.82-9.41-2.31-2.48-1.94-5.05-1.5-8.19,1.13-5.18,.4-10.81,.61-16.11,.23-5.32-.43-10.63-1.96-15.73-.84-2.97-.9-6.26-3-8.71,1.08,6.46,3.3,12.68,3.43,19.36,1.78,8.16-.24,15.44-.3,23.57-.28,1.11-.62,1.89-1.84,1.17-2.83-1.25-6.79-2.21-8.77-4.7,.04-1.26,.16-2.51,.35-3.75-.68-1.27-1.74-2-2.69-3.11-.72-2.32-1.11-4.73-1.14-7.15,2.12,.08,1.09,2.25,3.16,2.42-.84-5.14-3.1-9.67-3.22-15.09,.05-4.41-.67-8.8-2.1-12.97-.84-3.6-2.41-6.36,.48-9.52,1.55,.47,3.2,1.51,4.81,1.45,.84-.64,1.21-1.76,1.85-2.58,4.54,1.33,3.08,7.14,5.72,10.17,.31-2.47-.69-4.44-1.29-6.73,1.51,.08,2.99,.4,4.49,.6-1.18-4.21,5.11-5.1,7.31-2.52,.61,1.05,3.25,0,2.99,1.18-1.19,1.68-2.88,2.12-4.86,1.99,.76,2.85,4.41,4.56,5.68,7.39,1.24,1.54-.56,1.61-1.01,3.05-.44,1.63-3,1.08-3.71-.06-1.92-2.66-3.33-5.66-4.15-8.85-1.78-.61-.84,1.75-.5,2.58,1.34,2.66,1.99,3.81,1.5,6.86,4,1.5,4.27,8.2,6.11,11.65,1.53,3.3,1.33,4.26-.38,7.36,1.2-.61,3.59-.56,2.94-2.47-1.22-5.18-2.76-10.27-4.64-15.24,3.25,.9,6.36,2.23,9.26,3.96,1.91,2.34-1.27,1.68-2.63,2.19,.96,.61,1.96,1.15,2.9,1.79,.65,1.34,.36,3.22,.32,4.68-1.59,8.7-.84,18.1-.61,26.93,.77-1.98,1.51-3.99,2.13-6.02,.55-3.85-.13-7.83,.42-11.72,2.64,5.64,1.05,10.6,.73,16.32,2.67-.37,1.31,3.86,1.41,5.44-1.03,0-2.04-.16-3.06-.21-.48,.88-.79,1.85-.92,2.84,1.15-.38,2.27-.83,3.37-1.35-.48,2.98-1.98,4.54-.05,7.34-.35,3.6-1.03,7.04-.96,10.72-6.88-2.95-14.79-7.11-18.26-14.12,3.03-.3,3.59,2.61,6.4,3.32Zm-4.92,11.02c-.84-.25-1.08-.77-.7-1.53,1.09-.67,2.26,1.33,.68,1.53h.02Zm-.65-5.84c1.94-.06,4.13,2.88,6.06,3.69,2.2,1.24,4.71,1.73,6.89,3.2,1.55,2.52-2.13-.18-3.02-.29-2.68-1.54-10.17-2.74-9.95-6.61h.02Zm9.6,21.61c-1.26,.62-1.91-1.22-1.21-2.08,.83-.44,1.67,1.49,1.2,2.08h.02Zm.17,29.4c-1.34-.08-.56-1.98,.35-2.19,1.34,.09,.55,1.98-.35,2.19h0Zm1.77-31.92c-1.99,.35-2.05-1.77-2.37-3.19,2.21-.08,2.59,1.25,2.35,3.19h.02Zm.47,16.24c1.27-.84,3.16,3.04,1.34,3.21-1.04-.08-1.65-2.42-1.36-3.21h.02Zm2.4,21.45c-.61-.6-1.41-1.94-.9-2.77,1.32-.66,2.37,2.81,.88,2.77h.02Zm-1.8-24.1c1.61,.18,3.2,.53,4.74,1.03-.4,1.08-.95,2.1-1.64,3.03-1.43-.45-2.31-2.83-3.11-4.06h.02Zm3.44,12.03c1.01-.76,2.15,1.12,2.78,1.73-.28,1.7-4-.16-2.76-1.73h-.02Zm1.3,14.72c-1.46,.9-1.97-.93-.51-1.41,.78,.16,.96,.6,.51,1.41Zm1.56-9.26c-.84,.63-2.44-.38-1.94-1.38,.78-.61,2.42,.4,1.92,1.4l.02-.02Zm1.14,9.55c-.95-.25-1.18-.84-.7-1.68,.4-.36,1.02-.33,1.38,.07s.33,1.02-.07,1.38c-.17,.16-.4,.25-.63,.25l.02-.02Zm4.18-10.45c-1.15-4.86-1.55-9.86-1.18-14.84-.39-3.11-.57-6.24-.55-9.37,0-2.06-1.15-4.5-.58-6.49,.93-1.59,2.58-.62,4.07-.66,0-2.31-4.35-3.57-2.52-5.21,2.4,1.27,4.94,2.24,7.57,2.9-.05-.66-.15-1.31-.31-1.95-2.59-1.51-5.51-2.68-7.9-4.81-.84-5.34,.5-11.05,.61-16.6,0-3.71,3.28-5.78,3.21-9.54-.08-3.1,4.84-6.58,3.18-9.33-4.21-1.36-.37-3.9-2.25-6.88-1.04,.49-2.1,.92-3.19,1.3-.39-2.03,1.15-3.6,2.26-5.11,.74-.88,3.37-.45,3.46-1.62-1.18-2.58-3.59-4.35-4.86-6.73,.03-3.64-.29-7.27-.93-10.86-1.18-4.28,5.51-6.54,5.05-10.94,.44-2.35-3.54-3.07-4.96-4.4,.56-2.31,4.63-1.48,6.35-1.27,1.09,3.03,1.46,6.28,2.52,9.31,1.32,.58,2.91,.55,4.32,.84,.09,1.84,.55,1.77-1.41,1.87,2.52,3.14,1.94,8.18,2.33,12.08,.2,1.44-2.36,.84-2.1,2.3-.28,3.28-.9,6.51-1.85,9.66-.92,3.17,2.01,6.15,3.57,8.63,.18,3.63,.74,6.99,.35,10.6-.84-.69-.72-2.29-1.02-3.28-.6,1.36-.62,2.72-1.92,3.62-3.55,3.05-7.89,6.92-6.94,12.13,1.85-.23,3.69-.56,5.51-.99,1.96-1.2,2.42-4.15,4.33-5.59-.19,1.68,1.15,4.13-1.45,3.93,.21,2.7,1.46,5.29,1.81,7.97-.96,1.9,.44,2.37,1.25,3.96-2.05,1.89-5.05,3.37-6.44,5.94,1.01,1.32,1.89,3.47,3.54,4.01,1.55,.31,3.15,.31,4.7,.53,.13,1.8-.89,3.11-1.43,4.86,0,1.63,1.94,1.2,3.01,1.34,.59,1.93,1.06,3.9,1.39,5.89,.92,1.68,2.6,2.33,4.21,3.28,1.2,7.34,4.03,13.64,2.9,21.33-1.68,0-1.27-.97-1.83-2.21-.84,1.61-1.07,2.06-2.92,2.52-4.1,1.91-8.3,1.59-12.69,1.32-1.58-.68-2.79-2.21-4.21-3.16,.39,1.14,.89,2.24,1.33,3.37-2.33-1.06-4.28-2.83-5.55-5.05l-1.85,1.41Zm11.9-83.2c.05-2.46,.71-4.88,1.91-7.03l.31-.49c-.03,2.1,1.5,8.05-2.24,7.53l.02-.02Zm.56,17.67c-1.05,2.94-2.48,5.72-4.25,8.29-.74,.11-1.49,.14-2.23,.08,.63-3.25,2.54-6.12,5.29-7.95l1.19-.41Zm11.15,75.66c-1.51-.69-3.64-.98-3.29-3.13,1.78-.2,3.04,1.62,3.27,3.19l.02-.06Zm-4.57-3.92c-.18,1.3-.43,2.59-.75,3.87-2.93,.45-5.21,.63-6.61-2.35-.43-.53-.84-1.04-1.31-1.55,3.08-.09,5.64-1.1,8.65,.08l.02-.06Zm-15.99,9.76c-1.13,.88-4.33,.14-2.02-1.36,.82-.39,2.52,.37,2.01,1.42v-.06Zm.18-3.51c-.72,.52-2.52-1.31-2.04-2.04,1.08-.63,2.72,1,2.04,2.1v-.06Zm1.3-.84c-.36-1.26-.62-2.52-.84-3.85,2.95,1.99,9.35,1.68,9.88,5.66-2.4-1.1-5.22-3.64-7.96-3.09-.35,.98,.37,2.1-1.09,1.35v-.07Zm2.96,5.05c-1.11,.57-2.1-1.2-1.34-2.05,1.34-.72,2.14,1.19,1.3,2.15l.04-.09Zm15.21,2.73c-5.41,1.07-9.02-1.41-13.99-2.73-1.17-2.52,2.86-.75,4.07-.78,3.84,1.3,4.99-1.94,8.7-.72-.05-.76-.09-1.51-.13-2.26,1.11,.14,3.21-.93,2.58,1-.61,1.84,1.46,5.38-1.24,5.59v-.09Zm1.14-14.02c2.62-.56,2.75,.2,1.35,2.15-1.49-.66-3.31-.18-1.36-2.06v-.09Zm1.57,11.56c-.08-1.08-.08-2.16,0-3.23,.78-.05,1.55-.05,2.33,0,.13,1.84-1.15,2.42-2.34,3.32v-.09Zm1.69-8.42c-.08-1.08-.08-2.16,0-3.23,.76-.06,1.51-.08,2.28-.08-.34,1.37-1.14,2.59-2.28,3.43v-.12Zm2.62-16.83c-.84,1.73-1.83-.55-.91-1.37,.69-.05,.99,.4,.91,1.46v-.09Zm1.57,10.02c-.14-1.57-.29-2.81,.91-4.02,2.21,.31,.88,4.81-.91,4.12v-.09Zm.92-6.46c.84-.46,1.3-.29,1.41,.51-.48,1.55-2.31,1.04-1.41-.42v-.09Zm4.57,12.89c2.03-.54,4.1-.93,6.19-1.14-2.93,2.3-6.46,2.71-10.1,2.3,.81-.85,2.78-.66,3.91-1.06v-.09Zm6.4,3.89c.84-.45,2.84-.29,1.83,1.05-1.01,1.34-4.14,.63-1.83-.96v-.09Zm-.24,15.99c-.84-.25-1.08-.77-.7-1.53,1.11-.57,2.27,1.43,.7,1.63v-.1Zm-7.43-22.94c-.43-2.09,2.23-1.52,3.55-2.1,1.85-.35,3.75-.41,5.61-.16-1.74,2.64-6.42,2.72-9.17,2.33v-.08Zm-.27-3.37c-1.46,.9-1.97-.93-.51-1.41,.8,.19,.98,.63,.53,1.45l-.02-.03Zm5.05,26.09c-1.34-.08-.56-1.98,.35-2.19,1.35,.13,.56,2.01-.34,2.22l-.02-.03Zm-6.49-5.61c1.75-.29,4.71,0,5.05,2.18-1.09-.36-2.16-.84-3.25-1.19,.09,.77,.18,1.55,.27,2.32-1.51-.28-1.94-1.97-2.08-3.28v-.03Zm4.11,11.78c-.84-.25-1.08-.77-.7-1.53,1.1-.63,2.26,1.37,.69,1.57v-.04Zm1,7.4c0-1.53-.56-3,.98-3.96,1.46-.68,3.09,.6,4.21,1.48-1.46,1.31-3.26,2.19-5.2,2.52v-.04Zm3.37-5.13c-.34-2.78-.14-6.96,3.85-5.54,2.21,3.22-1.83,2.31-3.12,4.69,1.68-.1,3.37-.45,5.01-.58-1.09,2.4-3.64,1.53-5.74,1.47v-.04Zm6.8-49.48c1.53-.52,2.18,1.25,.64,1.8-1.62,.3-2.07-.97-.64-1.76v-.04Zm-.7-3.27c1.15-.71,2.84,1.05,1.96,2.16-1.1,.91-2.44-1.21-1.96-2.12v-.04Zm2.31,22.47c-.3-1.9,1.27-2.37,2.72-2.9l1.32-.33c-.83,1.25-2.31,3.64-4.04,3.27v-.04Zm3.16,5.84c-.48,1.46-2.31,.95-1.41-.51,.82-.42,1.3-.24,1.41,.56v-.04Zm-2.52-3.99c.4,2.17-2.58,2.37-4.1,2.39,.6-1.05,1.6-1.82,2.77-2.14l1.33-.25Zm-2.15-9.96c2.16-.98,.84,2.28-.29,2.33-1.3-.07-.2-1.85,.3-2.29v-.04Zm0,3.28c3.37-.22-.1,3.14-1.64,2.22-.36-.79,1-1.85,1.64-2.18v-.04Zm-1.27,4.91c-1.59,.5-1.68-.91-.45-1.55,1.55-.5,1.66,.91,.45,1.55Zm.45,13l1.35-.23c.08,2.87-2.02,2.44-4.12,2.34,.62-1.02,1.6-1.77,2.74-2.11h.04Zm2.52,5.89c-1.32,1.02-2.64,3.03-4.42,3.01,.39-2.87,3.43-7.03,6.56-4.94-.71,.66-1.44,1.28-2.15,1.89l.02,.04Zm5.29-5.53c-.49,.54-3.06,.65-2.74-.47,.47-.55,3.04-.66,2.73,.46h.02Zm3.19-9.27c-.22-.8,1.87-1,2.4-1.22,.93-.12,1.87,1.09,.57,1.46-1,.25-2.05,.16-2.99-.25h.02Zm6.21,8.53c-1.74,.13-2.26,.18-3.15-1.4,.61-.25,1.23-.48,1.87-.68,2.22-.93,1.09,.75,1.28,2.08Zm-5.77-11.01c.7-.97,1.69-1.71,2.82-2.1,1.14-.63,2.74,.4,3.85,.8-.9,2.38-4.65,1.28-6.65,1.3h-.02Zm7.79,9.38c-.84,1.73-1.83-.53-.91-1.36,.7-.14,1.01,.31,.93,1.36h-.02Zm.44-8.42c-1.59,.5-1.68-.91-.45-1.55,1.61-.54,1.72,.88,.51,1.51l-.06,.03Zm2.82,.84c-.19-1.42,.77-2.26,1.88-2.93l1.25-.36c-.67,1.45-.97,3.59-3.11,3.22l-.02,.07Zm.94-4.12c.26-1.03,.57-2.04,.94-3.03,1.11-.34,2.23-.62,3.37-.84,.7-.13,1.41-.23,2.12-.29-.74,2.94-3.92,3.06-6.41,4.09l-.02,.07Zm15.78,.84c-1.8,1.68-1.8,2.42-3.48,0,1.68-2.32,4.88-3.69,7.66-4.13-1.09,1.67-2.62,2.75-4.16,4.08l-.02,.05Zm8.34-1.68c-2.79,2.73-4.14,4.03-8.36,3.18,1.2-.5,2.44-.84,3.63-1.37,1.66-.76,2.86-1.83,4.75-1.84l-.02,.03Zm-9.85-5.74c.84-.46,1.3-.29,1.41,.51-.46,1.42-2.3,.92-1.4-.55l-.02,.03Zm.63,2.44c-2.85,2.39-4.49,4.03-8.32,2.17,1.09-1.78,3.43-1.42,5.29-1.93,1-.17,2.02-.26,3.04-.28l-.02,.03Zm-2.62,8.22c-1.3-.25-4.3,.23-4.8-1.39,.61-.29,1.23-.54,1.85-.77,2.25-.87,2.25,.58,2.95,2.16Zm-5.52-4.63l.59-.23c.35,2.52-2.37,5.26-4.92,4.92,.8-2.34,1.94-3.87,4.34-4.69h-.02Zm.68,12.5c-1.79,.49-3.1,1.49-5,1.37-.04-.71-.04-1.42,0-2.13,3.32,.07,6.57-.25,9.89,.17,.58,2.31-3.67,.4-4.87,.63l-.02-.04Zm8.7,4.25c-1.42,1.42-5.72,.54-1.78-1,.77-.32,2.75-.28,1.78,1Zm2.86-1.5c-1.03,.26-4.5-.65-2.18-1.99,1.15-.57,2.77,.81,2.19,2v-.02Zm6.72-6.52c-1.46,.9-1.97-.93-.51-1.41,.8,.18,.98,.61,.53,1.43l-.02-.02Zm-7.11-.19c-1.83,.44-3.53,1.77-5.2,2.63-.32-.71-.6-1.43-.84-2.16,4.11-2.3,8.68-3.65,13.38-3.96-1.05,2.32-4.95,3.34-7.34,3.51v-.02Zm9.13,2.21c.84-.46,1.3-.29,1.41,.51-.48,1.47-2.31,.97-1.41-.5v-.02Zm.63-11.12c-2.38,.94-2.66,0-4.49-1.25-.98-.05-1.96,.02-2.93,.19,.5-.84,1.14-3.02,2.34-2.96,1.56,.88,3.27,1.45,5.05,1.68,1.2-.43,1.1,2.67,.03,2.36v-.02Zm.18-4.27c-2.99-3.13-6.45-.99-10.1-.89-1.68-1.04-2.63-2.79-4.9-2.1-9.38,1.18-18.52,7.24-27.88,8-.22-1.82-.17-3.67-.44-5.48l-2.95-.62c-.71-2.52,1.05-5.43,1.8-7.84,1.78-.75,3.85-.29,5.55-1.11,1.12-1.08,2.13-2.27,3-3.56-.27-.97-.62-1.92-1.03-2.84-1.99-2.22-5.79-.96-7.1,1.36,.99,2.82,4.49,.27,6.86,.95-2.96,3.28-5.89,2.97-9.83,1.88-1.05-1.81-1.36-3.69-3.11-5.05-1.61-1.09-1.06-3.22-2.79-3.99-1.38-1.2-2.77,.15-2.72,1.68,1.68,.14,2.28-.61,2.94,1.34,1.24,1.29-3.13-.57-1.95,.67,.08,.63,1.79,2.52,.84,2.76-1.73,1.95-2.65-1.68-3.49-2.71-.54,4.48,2.35,6.19,5.45,8.54-1.46,2.91-.35,7.99-3.24,9.64-2.88,.29-5.82,.95-8.7,.98-.56-3.19-1.36-7.72-4.98-8.72,.47-4.9-2.41-9.81-3.53-14.7,1.08-2.17,2.26-4.28,3.55-6.33,4.7-2.04,9.61-3.21,14.43-4.99,6.06-1.19,12.62,.11,18.74-.68,2.48-.43,4.95-1.15,7.46-1.39-.27,1.65-.44,3.31-.51,4.97,1.38-1.04,1.86-2.47,2.83-3.85,1.38-.74,3.44-.69,4.21,.97,2.2,2.74,2.47,5.89,3.58,9.03,3.16,1.96,1.14-1.85,1.34-3.42,1.68-2.38,4.56-.2,6.48,.62,2.74,1.75,4.72,0,7.48-.58,.17,2.41,0,4.85,.21,7.25,.63,2.92,3.26,4.49,5.26,6.44,.84,2.46,2.46,5.26,2.1,7.89-1.13-.36-2.23-.82-3.28-1.36,.41,.99,.93,1.94,1.3,2.95-.71,1.58-1.68,3.04-2.87,4.3v-.02Zm3.44-1.09c-.69-1.06,.15-2.74,.9-3.56,1.41-.05,.62,4.37-.92,3.56h.02Zm4.18,8.92c.84-.46,1.3-.29,1.41,.51-.5,1.46-2.33,.95-1.43-.51h.02Zm-1.83-.24c.16-1.81,1.4-2.79,2.79-3.75l.52-.33c-.21,2.05-1.75,3.05-3.33,4.07h.02Zm3.84-10.98c-1.26,.62-1.91-1.22-1.21-2.08,.83-.44,1.67,1.49,1.2,2.08h.02Zm.56-11.71c-.84,1.73-1.83-.54-.91-1.36,.68-.14,.98,.31,.89,1.36h.02Zm-.84-56.98c.96-1.78,3.47-.63,4,.69-.25,1.68-1.2,3.22-1.83,4.76-.41,.89-.84,1.78-1.28,2.64-.92-2.68-1.53-5.26-.92-8.05l.03-.04Zm1.3,25.89c.22-1.26-1.58-3.98,.84-3.22,.27,2.67,.3,5.36,.07,8.03-1.25,.48-.53-3.99-.91-4.81Zm2.05,39.04c1.54-.84,2.33,3.62,.9,3.56-.77-.82-1.61-2.5-.92-3.56h.02Zm5.05,15.8c-1.25,1.74-2.71-.24-1.62-1.59,1.51-.97,2.74-.03,1.59,1.59h.03Zm-1.79-11.95c.71-1.46,2.02-2.55,3.59-2.98l.59-.23c-.3,1.76-2.66,2.84-4.21,3.21h.03Zm1.09,8.63c.49-.54,3.06-.65,2.74,.47-.52,.54-3.09,.65-2.78-.47h.03Zm2.04,5.54c-1.34-.08-.56-1.98,.35-2.19,1.32,.09,.53,1.98-.36,2.19h0Zm-1.43-7.57c-.14-.87,.26-1.74,1.02-2.21,1.68-.66,3.22,.35,3.04,2.21-1.36,.17-2.73,.18-4.09,.04l.03-.04Zm5.6,10.02c-.8-.3-1.88-.66-2.34-1.42,.55-.84,1.17-1.68,1.78-2.48s1.21-1.68,1.87-2.47c.77,.47,1.47,1.04,2.1,1.68-1.06,1.64-2.21,3.22-3.44,4.73l.03-.04Zm1.06-9.8c-1.68-.92-1.77-1.48-1.59-3.37,1.34-.16,2.7-.16,4.05,0,.07,1.79-1.24,2.55-2.49,3.41l.03-.04Zm4.48,.2l1.34-.23c.27,2.6-2.4,2.44-4.21,3.08,.29-1.74,1.26-2.24,2.84-2.81l.03-.04Zm.56,8.27c-1.62,.26-2.07-1.01-.64-1.8,1.5-.48,2.15,1.3,.61,1.84l.03-.04Zm.92-4.44c.06-1.09,.47-2.13,1.16-2.98,.58-1.56,1.74,1.53,1.99,2.05-1.02,.45-2.09,.78-3.19,.98l.03-.04Zm3.97-2.63c-1.34-.08-.56-1.98,.35-2.19,1.32,.13,.53,2.02-.36,2.23v-.04Zm4.44,2.74c-.5,1.68-3.16,.11-4.16-.25,.77-1.36,2.03-2.38,3.53-2.85,2.38-1.09,1.12,2.1,.6,3.15l.03-.04Zm-5.01-6.86c-.23-2,1.59-1.4,2.92-2.07,.98-.31,1.95-.65,2.94-.93-.51,2.62-3.61,3.38-5.87,3.04l.02-.04Zm2.44-5.05c2.76-3.02,7.85-4.44,11.67-5.71,.03,.74,0,1.48-.11,2.21-2.24,1.07-4.86,1.41-7.24,2.15-1.47,.46-2.84,1.02-4.34,1.37l.02-.03Zm12.62-.6c-1.42,1.14-3.06,1.41-4.73,1.99-1.28,.55-2.54,1.17-3.76,1.85,.36-3.19,5.95-3.57,8.46-3.81l.03-.03Zm-6.73,9.11c-2.36-.84-2.26-3.37,.29-3.93,.66-.24,3.59-.73,3.05,.62,.35,2.05-1.98,2.66-3.39,3.33l.06-.03Zm7.51,5.05c.1,1.98-3,0-2.37-1.55,1.67,.16,2.61-.88,2.31,1.57l.06-.03Zm-2.25-7.57c.41-3.84,2.98-4.15,6-5.5l.59-.21c-.83,2.34-3.99,6.01-6.65,5.76l.06-.04Zm16.34-8.5c-.18,1.56-.56,3.09-1.13,4.55-2.05,1.48-4.3,.07-6.22-.84,.25,1.09,.72,2.11,1.37,3.02-1.49,.49-3.04,.77-4.61,.84,.57-2.34,2.13-5.38,4.99-4.98,2.41,.08,3.48-1.62,5.54-2.55l.06-.04Zm-2.24,8.58c-1.63,2.45-6.51,2.75-9.26,3.16,1.83-1.39,3.93-2.4,6.16-2.95,1-.21,2.02-.27,3.04-.17l.06-.04Zm-8.62,7.36c-1.46,.9-1.97-.93-.51-1.41,.78,.16,.96,.6,.51,1.41Zm14.94-6.09c-3.94,1.61-8.05,2.81-12.24,3.58,.97-1.45,2.36-1.45,3.86-2,2.9-.98,5.84-1.89,8.81-2.63l-.44,1.06Zm-3.03-6.25c-.84-.25-1.08-.77-.7-1.53,1.09-.67,2.26,1.33,.68,1.53h.02Zm6.99-.72c.4-.92,1.63-1.4,2.52-1.68,2.22,.87-2.06,3.82-2.52,1.66v.03Zm10.1,1.04l1.77-1.03c1.75-1.25,3.79-1.64,5.51-.09-1.16,1.7-6.2,3.54-7.3,1.09l.02,.03Zm10.52-8.25c-3.91,1.99-8,1.77-11.42,4.92-1.11-1.08-2.3-2.08-3.55-2.99-1.25,.24-2.1,1.62-3.37,1.68-2.76-.24-5.05-1.68-7.57-2.38-3.48-1.03-6.73,.24-10.2-.69-2.15-.46-4.12,2.74-6.29,2.12-.21-1.01-.42-2.03-.62-3.04-2.32-.44-4.76,.65-7.17,.64,.62-1.83,1.78-3.43,3.32-4.6,.97,.52,1.98,.98,3,1.38l-1.01-1.68c2.38-1.17,4.85-2.12,7.41-2.83-1.3,1.58-2.73,3.05-4.28,4.38,.7-.06,1.4-.17,2.1-.32,2.75-2.24,5.16-4.86,7.17-7.79,.54,.41,1.06,.84,1.59,1.25,1.45-3.06,4.91-2.89,7.73-4.75,1.07-1.9,.9-4.56,2.05-6.4,4.42-3.72,3.18-11.31,6.56-16.03,.44-1.96-.39-4.12,.24-6.25-1.23,.86-2.4,1.81-3.51,2.82,.73,1.01,1.34,1.46,.99,2.83-.63,4.42-1.6,8.78-2.9,13.05-.49,1.55-2.21,2.23-3.37,3.37-.35,1.76-.23,3.59-.51,5.36-.61,.92-2.24,.57-3.04,1.28-1.62,1.74-4.93,1.29-6.55-.26,.44-1.09,.96-2.14,1.35-3.24-2.98,1.62-2.37,2.68-2.1,5.66-2.9,4.62-9.34,5.68-14.04,7.57-1.9,1.41-2.52,3.53-3.88,5.3-3.34,2.23-6.95,4.01-10.76,5.29-3.04,.89-5.29,2.75-8.47,2.06-.21-1.3-.3-2.63-.5-3.94-1.89-.44-3.05,.54-4.67,1.22-3.62-2.37-2.43-5.13-2.79-8.85-.5,.79-.94,1.62-1.45,2.4-.11-1.92-.11-3.84,0-5.76,.54,.78,1.03,1.6,1.57,2.38-.24-3.67-1.41-6.73-.57-10.55,3.22-.84,6.12-2.07,9.52-1.81,2.9-4,7.15-5.29,10.94-8.16,1.33-1.94,1.63-5.1,3.53-6.56,2.52-1.73,5.59-1.62,7.53-4.21,1.94-2.58,4.49-4.69,5.59-7.7,1.92,1.68,1.77,0,3.07-1.32,1.94-3.37,7.45-4.04,9.26-7.57,1.2-2.39,2.73-4.62,3.86-7.04,2.01-7.14,3.37-14.67,6.03-21.6,.13,3.7,.66,7.29,1.04,10.94-.15,7.57,2.66,15.15,5.83,21.92-1.1,1.94-3.86,2.7-4.88,5.05,1.76-.51,2.9-1.68,4.49-2.52,.05,.59,.11,1.18,.17,1.77,1.68-1.64,2.05-3.93,4.4-5.09,1.8,3.22,1.28,9.86,5.1,11.72,.19-4.16-2.41-8.26-3.25-12.33,1.83,.62,3.69,1.21,5.54,1.81,1.55,5.37,2.66,10.85,3.32,16.4-.93-.62-1.92-1.15-2.95-1.58,.41,1.43,1.24,2.68,1.64,4.11-.53,1.09-2.09,3.53-3.2,1.55-1.84-1.91-1.75-4.05-2.16-6.5-1.87,1.06-.61,2.37-.44,4.05,.54,2.03,2.19,3.46,3.22,5.22-.36,1.96-.98,3.86-1.83,5.66-.53,1.04-2.68,2.24-2.28,3.44,1.31,2.52,3.29,4.79,4.7,7.31-1.02,.45-2.05,.84-3.04,1.36,1.54,2.37,5.65,3.3,4.75,7.04l.02,.03Zm.32-7.21c1.04-.09,2.09-.12,3.14-.07-.41,.71-.62,2.52-1.68,2.37-2.31,.36-1.3-.69-1.47-2.3h.02Zm1.53,5.04c-.84-.25-1.08-.77-.7-1.53,1.09-.67,2.26,1.33,.68,1.53h.02Zm-1.51,22.41c.58-.63,1.22-1.21,1.82-1.83-1.29-2.74,.09-2.26,2.07-3.7-.18,1.62,.03,3.27,.62,4.79-1.44,2.31-2.37,1.15-4.53,.75h.02Zm5.1-3.52c-.58-1.01,.84-2.45,1.73-2.79,1.92,.64-.3,3.43-1.75,2.79h.02Zm10.69-4.09c-3.64,2.2-5.78,.49-8.35-2.15,2.96-.64,6.05,.15,8.33,2.15h.02Zm-7.36-9.38c-.51-.62-.41-1.53,.21-2.04,.53-.43,1.3-.43,1.83,0,.57,.72-1.33,2.65-2.05,2.04h.02Zm1.68-5.29c.8-.08,1.59,.23,2.11,.84-.03,1.53-4.67,.64-2.16-.82l.05-.02Zm3.91,5.58c-1.59,.5-1.68-.91-.45-1.55,1.54-.51,1.65,.91,.45,1.55h0Zm3.67-2.58c-.55-.63-.87-1.43-.9-2.27,1.39-.13,2.78-.13,4.17,0-.8,1.13-1.98,1.93-3.32,2.27h.05Zm0-4.08c.27-.79,.6-1.56,.96-2.31,.71-.14,1.44-.19,2.16-.13,.32,2.05-1.75,1.85-3.14,2.44h.02Zm3.03-8.66c-2.05,1.3-4.78,3.73-7.29,3.49-.14-1.84,2.43-3.37,3.37-4.82,1.33-1.68,2.37-3.75,3.93-5.18,.31,2.16,.31,4.35,.02,6.51h-.03Zm-2.95-21.88c-2.04-1.77,1.32-3.22,2.22-4.71-1.36,.13-2.68,.39-4.03,.52-.08-.84-.05-1.69,.09-2.52,.94-.23,1.87-.51,2.78-.84,.12-1.51-.18-2.52,1.25-3.54,2.07,1.48,3.16-.71,5.34-1.24,.14,1.36,.42,2.71,.84,4.01-1.05,2.79-1.83,5.45-4.55,7.03,0,2.99,1.81,5.19,1.6,8.2-3.16,.33-3.79-5.01-5.55-6.9h.02Zm9.18,32.31c-.99,1.04-4.97,1.26-2.47-.77,.47-.47,4.03-.48,2.44,.77h.03Zm5.78-8.42l-1.74-1.96c1.06-.84,2.23-1.73,3.66-1.36,.48,.78,.13,2.99,1.41,1.51,3.05-2.81,6.13-2.79,10.04-2.42-.78,.52-1.6,1.01-2.38,1.54,1.68-.08,3.32-.36,4.97-.56-1.07,1.43-2.52,1.83-4.21,2.31-5.31,1.68-11.14,4.93-16.75,4.92-.82-3.6,2.97-2.41,4.97-3.96l.03-.03Zm-2.73,9c-1.46,.9-1.97-.93-.51-1.41,.78,.16,.96,.6,.51,1.41Zm1.18-2.19c.84-.46,1.3-.29,1.41,.51-.5,1.46-2.33,.95-1.43-.51h.02Zm3.99,.47c.33-2.31,1.83-2.26,3.71-2.84,.72-.14,1.45-.23,2.19-.25-1.61,1.61-3.68,2.68-5.92,3.09h.02Zm6.78-3.37c1.54-1.78,3.66-2.21,5.41-3.65,1.01-1.22,2.1-2.39,3.26-3.48,2.1-.39,4.28-.19,6.4-.44,.2-2.16-1.64-1.98-3.11-2.71,3.91-1.58,8.69-4.46,13.01-3.53,3.01,.65,5.2-1.89,7.83,.18-1.25,.17-2.49,.43-3.7,.77-1.25,3.37-5.24,2.83-8.13,3.01,.84,3.37-6.93-.13-3.7,3.07-5.45,3.31-10.8,6.23-17.28,6.78h.02Zm26.23-3.27c-.66-.5-1.31-.98-1.99-1.46-3.12-.92-4.49,1.43-7.36,1.5,1.75-1.66,3.83-2.94,6.1-3.75,2.12,.11,4.25,.02,6.35-.29-.73,1.67-1.38,3.21-3.13,4.01h.02Zm7.63-5.06c.13-1.04,.34-2.08,.49-3.12-2.33,1.29-4.56,3.24-7.37,3.1,2.88-2.82,6.82-3.42,9.33-6.68,3.66,1.84,.45,6.45-2.46,6.76l.02-.05Zm-.05-10.1c.77-1.94,1.68-4.34,3.45-5.61l1.34-.17c.42,3.3-.89,6.68-4.81,5.82l.02-.05Zm43.87-36.68c.69-.25,1.43-.32,2.15-.19,.19,1.86-.98,1.68-2.31,2.27-.65-1.19-1.46-1.25,.16-2.09Zm-9.37,9.92c.84,.12,.98,.6,.51,1.41-1.46,.92-1.97-.92-.51-1.4v-.02Zm-11.61,3.45c.61-.52,2.84-.64,2.84,.49-.47,1.57-3.32,1.18-2.84-.47v-.02Zm1.04,6.19c2.36-.92,4.6-2.1,6.98-2.97-1.97,3.62-5.2,3.98-8.65,5.51-1.81,.43-3.37,2.06-4.61-.15,2.11-.76,4.21-1.55,6.29-2.37v-.02Zm-6.22-.32c.89-.44,1.93-.44,2.82,0,.2,1.16-5.85,2.45-2.82,.02v-.02Zm-11.86,19.89c-1.88-1.96,.4-2.03,1.83-2.92l1.33-.23c.25,2.11-1.62,2.5-3.16,3.16v-.02Zm-.08-4.25c.28-1.26,.64-2.51,1.09-3.72,1.39-.35,2.82-.52,4.21-.73l.59-.08c-.47,2.33-4.08,3.31-5.89,4.54v-.02Zm0-5.84c.33-.47,.7-.91,1.09-1.34,1.87-.3,3.78-.3,5.66,0-2.1,1.8-4.19,1.62-6.77,1.36l.03-.02Zm7.71,4.07c-1.73-.61,.22-2.96,.92-3.75,1.3-.24,2.62-.26,3.92-.04,.09,2.58-2.82,3.45-4.86,3.81l.03-.02Zm3.22-5.73c1.46-1.65,3.3-2.93,5.35-3.73l1.25-.38c-.94,3.38-3.27,4.5-6.63,4.12l.03-.02Zm14.97-3.3c-1.59,.5-1.68-.91-.45-1.55,1.55-.5,1.66,.91,.45,1.55Zm8.2-6.19c-1.08,.27-2.17,.39-3.27,.62-.15,.93,.35,2.4-.84,2.76-1.79,1.3-.55-1.22-.84-2.12-4.64,.61-5.63,6.21-10.66,5.76,1.39-1.86,3.23-2.87,5.18-4.04,2.2-1.35,2.69-3.91,4.28-5.74,3.87-1.92,5.94-4.96,10.57-5.2-1.67,2.6-3.36,5.04-4.46,7.96h.04Zm.54-9.74c.72-1.43,1.61-2.78,2.64-4.01,1-.22,2.04-.24,3.05-.08,.17,2.53-3.6,4.19-5.73,4.08h.04Zm12.77-33.35c.84-.64,3.45,.72,3,2.05-1.16,.07-6.05-.32-3.04-2.05h.04Zm.06,13.65l.34-.39c1.79,2.66-.74,4.21-3.06,4.97,.62-1.67,1.53-3.22,2.68-4.59h.04Zm-1.92,17.03c-.1-.85,.28-1.69,.98-2.18,1.68,0,3.91,.68,4.85,2.17-1.96,.24-3.94,.24-5.9,0h.07Zm9.38-3.17c-2.01,1.74-2.77,1.68-5.19,.77-1.68-.24-.1-2.29,.23-3.11,1.64-.88,3.62,1.41,4.9,2.34h.07Zm-5.24-3.27c-.95-.25-1.18-.84-.7-1.68,.39-.37,1.01-.36,1.38,.04,.37,.39,.36,1.01-.04,1.38-.19,.18-.45,.28-.71,.27h.07Zm1.68-13.85c-1.07-.23-2.12-.5-3.17-.84,.42-1.09,.98-2.12,1.68-3.06,1.83,.61,1.33,2.3,1.41,3.9h.08Zm4.06,3.59c.18-1.68,.24-3.37,.42-5.05,1.76,2.19,1.68,4.73,1.24,7.36-.5,.66-1.29,1.04-2.11,1.01,.03-1.1,.24-2.21,.39-3.32h.07Zm-2.17-6.51c1.41,0,.14,2.45-.44,2.87-1.42,.03-.67-2.69,.35-2.87h.08Z"/><path class="cls-1" d="M86.96,170.7c-1.46,.48-.95,2.31,.51,1.41,.46-.82,.29-1.25-.51-1.41Z"/><path class="cls-1" d="M279.06,129.81c-2.21,1.2-4.61,2.58-6.24,4.53,2.68-.5,6.07-2.6,7.49-4.96l-1.25,.43Z"/><path class="cls-1" d="M91.17,169.86c-1.46,.48-.95,2.31,.51,1.41,.46-.82,.29-1.25-.51-1.41Z"/><path class="cls-1" d="M352.75,119.33c-2.26,1.26-4.56,3.81-4.09,6.58,.8-.06,1.58-.27,2.31-.62l-1.41-.37c.82-2.04,2.6-3.49,3.2-5.59Z"/><path class="cls-1" d="M182.13,38.23c4.42,3.16,8.17,6.88,13.85,7.53,1.89,.18,3.3,.74,4.43-1.2-1.64-.17-3.3-.19-4.93-.43-3.93-.79-7.58-2.62-10.56-5.29-2.98-1.99-4.44-4.93-8-5.4,1.3,2.21,3.27,3.27,5.23,4.79Z"/><path class="cls-1" d="M203.48,48.37c.48-1.27-1.88-2.05-2.72-1.34-.4,.87,2.15,1.9,2.72,1.34Z"/><path class="cls-1" d="M178.6,50.28c.56,3.26,1.91,4.73,5.05,5.69-.75-1.15-1.64-2.21-2.64-3.15-.76-.89-1.56-1.74-2.41-2.54Z"/></g></g></g></svg>